<?xml version="1.0" standalone="no"?>
<!DOCTYPE svg PUBLIC "-//W3C//DTD SVG 20010904//EN"
 "http://www.w3.org/TR/2001/REC-SVG-20010904/DTD/svg10.dtd">
<svg version="1.0" xmlns="http://www.w3.org/2000/svg"
 width="42" height="42" viewBox="0 0 512.000000 512.000000"
 preserveAspectRatio="xMidYMid meet">

<g transform="translate(0.000000,512.000000) scale(0.100000,-0.100000)"
fill="#1150C6" stroke="none">
<path d="M1464 5104 c-17 -8 -126 -111 -243 -228 l-211 -213 0 -49 c0 -62 7
-73 143 -211 107 -108 110 -113 99 -139 -23 -50 -26 -137 -7 -195 15 -44 37
-73 122 -160 56 -58 103 -109 103 -114 0 -4 -16 -25 -36 -47 -33 -37 -94 -149
-94 -173 0 -6 -27 -37 -61 -70 -515 -505 -649 -1306 -329 -1970 120 -250 338
-505 560 -657 41 -28 79 -54 83 -58 5 -4 -27 -15 -70 -25 -210 -46 -379 -178
-474 -370 -67 -136 -90 -308 -48 -366 45 -63 -57 -59 1479 -59 1528 0 1432 -4
1479 56 16 21 21 41 21 88 -1 233 -147 472 -359 584 -57 31 -165 69 -211 74
-22 3 -15 10 50 53 211 140 417 357 530 557 l32 58 114 0 c126 0 158 10 189
56 37 58 16 135 -48 174 -31 19 -55 20 -682 20 -611 0 -652 -1 -684 -18 -35
-19 -71 -72 -71 -105 0 -36 30 -87 62 -107 25 -15 51 -20 103 -20 l70 0 -25
-20 c-45 -35 -184 -98 -275 -125 -446 -129 -934 77 -1154 487 -91 168 -115
271 -115 478 0 171 7 218 55 350 43 118 141 272 215 341 19 18 46 29 79 34 67
9 163 54 212 99 22 20 44 36 49 36 5 0 108 -99 229 -221 121 -121 238 -230
260 -242 60 -32 191 -31 259 2 l48 24 219 -219 219 -219 55 0 55 0 190 190
c201 200 217 224 199 288 -6 23 -71 94 -223 246 l-215 214 27 51 c34 65 38
178 8 241 -13 27 -232 254 -670 692 -539 541 -658 656 -699 673 -58 25 -155
28 -207 6 l-35 -15 -116 114 c-142 141 -186 163 -255 129z m121 -354 l60 -60
-105 -105 -105 -105 -62 62 -63 63 102 102 c57 57 105 103 108 103 3 0 32 -27
65 -60z m1017 -727 c340 -340 618 -624 618 -632 0 -24 -461 -481 -485 -481
-13 0 -106 86 -262 242 l-243 243 0 60 c0 251 -204 455 -454 455 l-61 0 -117
117 c-65 65 -118 124 -118 133 0 23 461 480 485 480 13 0 231 -211 637 -617z
m-731 -386 c146 -77 144 -283 -4 -358 -54 -28 -149 -23 -195 10 -79 56 -111
148 -82 235 38 115 173 169 281 113z m-476 -418 c4 -12 34 -48 67 -81 l59 -59
-54 -82 c-145 -217 -205 -401 -214 -657 -6 -181 9 -295 58 -442 171 -513 647
-859 1184 -860 335 -1 630 118 878 352 l85 81 136 -3 136 -3 -64 -82 c-377
-476 -989 -676 -1565 -512 -137 39 -228 78 -339 144 -460 271 -732 741 -733
1266 -1 280 67 531 202 758 58 96 136 201 149 201 5 0 12 -9 15 -21z m2085
-574 l-75 -75 -160 160 -160 160 75 75 75 75 160 -160 160 -160 -75 -75z m-69
-2101 c75 -22 149 -66 196 -117 41 -45 86 -115 98 -154 l6 -23 -1231 0 -1231
0 6 23 c23 74 109 180 183 223 112 66 67 63 1038 63 777 1 887 -1 935 -15z"/>
</g>
</svg>
