<?xml version="1.0" standalone="no"?>
<!DOCTYPE svg PUBLIC "-//W3C//DTD SVG 20010904//EN"
 "http://www.w3.org/TR/2001/REC-SVG-20010904/DTD/svg10.dtd">
<svg version="1.0" xmlns="http://www.w3.org/2000/svg"
 width="42" height="42" viewBox="0 0 781.000000 980.000000"
 preserveAspectRatio="xMidYMid meet">


<g transform="translate(0.000000,980.000000) scale(0.100000,-0.100000)"
fill="#4BB8EB" stroke="none">
<path d="M3675 9784 c-131 -20 -217 -42 -334 -85 -807 -301 -1272 -1191 -1076
-2061 33 -147 66 -243 131 -378 175 -366 434 -635 779 -808 254 -127 498 -180
788 -169 183 6 294 25 448 77 861 287 1348 1208 1125 2125 -150 614 -634 1114
-1224 1264 -194 50 -450 64 -637 35z m350 -144 c326 -32 594 -145 849 -359
329 -276 526 -685 561 -1166 8 -106 -8 -291 -37 -425 -99 -461 -382 -848 -786
-1075 -112 -63 -273 -122 -412 -152 -162 -35 -416 -37 -570 -4 -557 118 -985
505 -1169 1057 -107 318 -112 679 -15 1003 44 146 152 366 241 490 254 354
659 589 1083 630 120 12 143 12 255 1z"/>
<path d="M2553 6525 c-434 -126 -831 -334 -1173 -614 l-105 -86 118 -3 118 -3
72 54 c340 254 716 430 1144 537 66 16 128 30 137 30 22 0 20 13 -3 27 -10 6
-44 32 -75 57 -30 25 -61 46 -68 46 -7 -1 -81 -21 -165 -45z"/>
<path d="M5057 6552 c-9 -10 -42 -36 -72 -58 -30 -21 -55 -41 -55 -44 0 -3 63
-20 139 -38 419 -99 823 -287 1157 -538 l72 -54 118 0 119 1 -45 40 c-87 78
-307 238 -424 309 -151 92 -405 215 -563 274 -113 41 -393 126 -419 126 -6 0
-18 -8 -27 -18z"/>
<path d="M243 5660 c-86 -17 -167 -81 -211 -164 l-27 -51 0 -2230 0 -2230 30
-54 c37 -68 102 -125 168 -148 50 -17 210 -18 3702 -18 3567 0 3651 0 3705 19
39 14 70 35 110 75 100 101 90 -149 90 2361 l0 2205 -29 60 c-34 72 -88 126
-156 157 l-50 23 -3645 1 c-2005 1 -3664 -2 -3687 -6z m7343 -176 c15 -11 37
-33 48 -48 l21 -27 0 -2194 0 -2194 -21 -27 c-11 -15 -33 -37 -48 -48 l-27
-21 -3654 0 -3654 0 -28 21 c-15 11 -38 40 -51 64 l-22 45 2 2170 c3 2169 3
2170 24 2205 11 19 35 45 54 58 l33 22 3648 -2 3648 -3 27 -21z"/>
<path d="M566 5200 c-16 -5 -40 -19 -53 -32 -57 -53 -53 78 -53 -1948 0 -2030
-3 -1907 55 -1960 l27 -25 3331 -5 c1833 -3 3348 -1 3367 3 19 5 46 19 58 30
55 51 52 -75 52 1952 0 1825 -1 1877 -19 1913 -11 20 -34 46 -53 57 -33 20
-52 20 -3358 22 -1849 1 -3338 -3 -3354 -7z m6634 -1985 l0 -1835 -3295 0
-3295 0 0 1835 0 1835 3295 0 3295 0 0 -1835z"/>
<path d="M1819 4731 c-38 -29 -64 -130 -55 -213 28 -274 346 -450 926 -513
181 -20 642 -29 859 -18 153 8 165 10 182 32 25 30 24 83 0 105 -18 17 -57 18
-488 20 -379 2 -492 6 -592 19 -329 46 -532 114 -645 218 -84 77 -98 131 -71
279 13 68 -62 114 -116 71z"/>
<path d="M3706 4729 c-34 -27 -37 -86 -5 -115 19 -17 41 -19 200 -22 l179 -3
31 31 c36 36 34 71 -7 108 -24 21 -33 22 -198 22 -160 0 -175 -2 -200 -21z"/>
<path d="M5910 4737 c-35 -18 -47 -58 -30 -105 70 -192 -122 -354 -522 -436
-209 -43 -309 -50 -792 -52 l-470 -2 -18 -22 c-35 -43 -19 -99 34 -121 52 -22
803 -19 998 3 509 59 799 186 901 394 56 114 48 282 -17 333 -31 24 -49 26
-84 8z"/>
<path d="M3700 4420 c-13 -13 -20 -33 -20 -59 0 -66 15 -71 225 -71 196 0 217
5 229 55 7 29 -15 79 -39 89 -9 3 -97 6 -196 6 -166 0 -180 -1 -199 -20z"/>
<path d="M1501 4184 c-26 -34 -34 -77 -30 -166 14 -265 317 -457 839 -532 201
-29 357 -37 710 -36 385 1 465 7 487 35 19 28 16 82 -7 105 -19 19 -30 19
-347 13 -645 -12 -1054 44 -1315 179 -100 52 -160 106 -193 173 -25 50 -27 61
-20 134 6 72 5 81 -14 100 -31 31 -84 28 -110 -5z"/>
<path d="M6200 4188 c-19 -21 -20 -30 -14 -98 8 -98 -16 -160 -88 -225 -212
-190 -684 -276 -1444 -261 l-321 6 -21 -23 c-29 -31 -28 -78 1 -104 33 -30 90
-34 492 -34 548 1 847 39 1123 140 288 107 446 305 412 519 -7 42 -16 63 -35
80 -34 28 -78 29 -105 0z"/>
<path d="M3885 3899 c-16 -5 -36 -16 -42 -26 -10 -13 -13 -192 -13 -814 l0
-798 26 -20 c34 -27 64 -27 98 0 l26 20 0 794 c0 436 -3 801 -6 810 -10 26
-55 43 -89 34z"/>
<path d="M1353 3576 c-26 -23 -28 -29 -28 -103 0 -124 53 -216 173 -305 165
-122 417 -195 827 -240 172 -19 1027 -18 1072 0 39 17 61 62 45 97 -23 51 -40
54 -252 43 -213 -11 -641 -4 -815 12 -348 33 -601 97 -745 188 -114 71 -153
129 -151 224 1 50 -3 62 -23 83 -32 32 -67 32 -103 1z"/>
<path d="M6373 3590 c-31 -13 -46 -47 -39 -89 25 -154 -186 -299 -541 -370
-305 -62 -746 -84 -1198 -61 -192 9 -213 4 -226 -60 -6 -28 -3 -38 20 -61 27
-26 29 -27 206 -34 220 -9 774 0 910 15 449 49 741 150 883 304 75 82 96 134
97 234 0 79 -1 85 -28 108 -30 25 -48 28 -84 14z"/>
<path d="M1323 3034 c-25 -25 -26 -30 -20 -102 22 -267 164 -474 412 -597 134
-67 258 -96 435 -102 174 -6 259 6 481 72 483 142 538 155 679 155 71 0 92 4
111 19 26 21 32 79 10 105 -51 62 -297 35 -641 -70 -474 -145 -605 -160 -846
-99 -285 72 -484 289 -484 528 0 52 -20 101 -45 111 -33 12 -67 5 -92 -20z"/>
<path d="M6388 3049 c-20 -11 -38 -68 -38 -124 -1 -165 -129 -349 -307 -443
-126 -66 -249 -94 -413 -96 -161 -1 -224 11 -498 95 -336 103 -464 131 -618
133 -86 1 -105 -2 -122 -17 -28 -26 -35 -62 -18 -96 20 -37 32 -41 125 -41
140 0 232 -20 645 -144 233 -69 325 -86 477 -86 198 0 385 48 539 137 35 21
101 74 146 118 68 68 89 96 127 175 73 151 98 320 56 374 -22 28 -68 35 -101
15z"/>
<path d="M3706 2049 c-34 -27 -37 -86 -5 -115 19 -17 41 -19 199 -22 175 -3
178 -3 205 21 38 33 39 81 1 114 -26 22 -33 23 -200 23 -160 0 -175 -2 -200
-21z"/>
<path d="M3700 1740 c-12 -12 -20 -33 -20 -55 0 -22 8 -43 20 -55 19 -19 33
-20 203 -20 198 0 219 5 231 55 7 29 -15 79 -39 89 -9 3 -97 6 -196 6 -166 0
-180 -1 -199 -20z"/>
<path d="M310 413 c0 -187 2 -201 24 -248 30 -64 99 -128 162 -149 46 -15 317
-16 3429 -14 l3380 3 40 21 c57 31 108 84 135 140 22 45 24 64 28 247 l4 197
-81 0 -81 0 0 -176 c0 -206 -7 -231 -74 -264 l-43 -20 -3339 2 c-3200 3 -3341
4 -3367 21 -61 39 -67 64 -67 260 l0 177 -75 0 -75 0 0 -197z"/>
</g>
</svg>
