<?xml version="1.0" standalone="no"?>
<!DOCTYPE svg PUBLIC "-//W3C//DTD SVG 20010904//EN"
 "http://www.w3.org/TR/2001/REC-SVG-20010904/DTD/svg10.dtd">
<svg version="1.0" xmlns="http://www.w3.org/2000/svg"
 width="1920.000000pt" height="1920.000000pt" viewBox="0 0 1920.000000 1920.000000"
 preserveAspectRatio="xMidYMid meet">

<g transform="translate(0.000000,1920.000000) scale(0.100000,-0.100000)"
fill="#1150C6" stroke="none">
<path d="M5498 17620 c-159 -27 -317 -119 -410 -240 -26 -34 -28 -34 -60 -22
-89 35 -242 83 -318 99 -128 27 -348 24 -459 -5 -314 -85 -558 -314 -745 -702
-175 -363 -277 -814 -307 -1363 -17 -320 11 -694 66 -879 11 -38 17 -211 30
-806 8 -416 18 -808 21 -869 l6 -113 169 0 169 0 26 43 c56 90 81 123 148 190
37 38 96 86 130 108 33 21 67 43 74 49 9 8 12 151 12 648 l0 638 -70 11 c-418
65 -507 630 -130 823 52 26 132 50 173 50 l27 0 1 193 c0 105 4 212 7 237 l7
45 80 -2 c44 -1 152 -7 240 -12 497 -33 1162 -33 1510 -1 273 25 547 80 669
134 32 14 62 24 66 21 4 -2 16 -46 26 -97 17 -85 19 -146 19 -718 0 -567 -2
-633 -18 -710 -55 -255 -165 -463 -344 -651 -184 -192 -417 -322 -678 -378
l-80 -18 -3 -121 -3 -122 62 -37 c127 -79 266 -196 329 -277 l35 -45 186 -1
c138 0 189 3 197 13 12 15 218 543 362 932 174 466 299 828 330 956 108 442
106 1020 -5 1535 -105 490 -326 906 -598 1132 -291 240 -681 377 -949 332z"/>
<path d="M5221 15235 c-121 -102 -35 -349 102 -292 95 40 113 203 32 284 -42
42 -89 45 -134 8z"/>
<path d="M6105 15227 c-83 -83 -59 -254 40 -287 30 -10 41 -9 72 7 52 25 78
74 78 148 0 141 -107 215 -190 132z"/>
<path d="M13285 13068 c-315 -31 -633 -141 -875 -300 -109 -71 -257 -214 -319
-306 -279 -416 -139 -907 368 -1283 118 -88 337 -203 471 -248 l85 -28 5 -329
c5 -316 6 -331 27 -371 13 -23 35 -50 50 -61 30 -21 110 -48 118 -40 4 4 165
788 165 803 0 8 76 25 116 25 139 0 272 -128 318 -306 20 -77 21 -231 1 -304
-25 -93 -71 -174 -131 -229 -31 -28 -67 -54 -80 -57 -29 -7 -29 -6 -9 -184 18
-164 50 -348 72 -415 43 -134 157 -307 254 -386 174 -143 373 -209 579 -195
199 13 378 73 505 169 115 86 311 349 500 667 89 151 257 482 324 640 70 166
164 450 192 580 31 146 31 359 0 475 -56 209 -185 394 -379 542 -55 42 -67 57
-96 123 -45 105 -97 181 -196 284 -166 173 -346 298 -625 436 -498 245 -978
345 -1440 298z"/>
<path d="M3997 12778 c-41 -46 -37 -61 14 -56 32 3 34 6 37 42 5 57 -8 60 -51
14z"/>
<path d="M5554 12776 c-13 -33 0 -51 39 -54 46 -4 47 5 2 41 -29 23 -36 25
-41 13z"/>
<path d="M12470 10610 c0 -99 3 -180 8 -180 50 1 90 167 63 266 -11 43 -45 94
-62 94 -5 0 -9 -76 -9 -180z"/>
<path d="M1924 7021 c-73 -33 -75 -37 -188 -471 -25 -96 -123 -468 -216 -827
l-170 -651 0 -316 c0 -291 2 -320 19 -354 22 -42 43 -63 88 -86 29 -15 355
-16 3915 -16 l3883 0 -580 581 c-510 510 -600 595 -744 707 -547 425 -499 385
-552 465 -125 191 -105 433 50 609 79 90 234 158 359 158 93 -1 135 -12 295
-81 77 -33 141 -58 142 -57 1 2 -11 44 -27 93 -31 97 -32 147 -3 191 42 64
142 84 205 42 23 -16 73 -89 162 -238 l130 -215 546 -320 c301 -176 551 -320
555 -320 6 0 415 965 471 1110 5 13 -465 15 -4147 15 -4027 0 -4153 -1 -4193
-19z"/>
<path d="M17520 6219 l1 -94 39 -45 39 -45 -35 135 c-20 74 -38 137 -40 139
-2 2 -4 -38 -4 -90z"/>
</g>
</svg>
