<?xml version="1.0" standalone="no"?>
<!DOCTYPE svg PUBLIC "-//W3C//DTD SVG 20010904//EN"
 "http://www.w3.org/TR/2001/REC-SVG-20010904/DTD/svg10.dtd">
<svg version="1.0" xmlns="http://www.w3.org/2000/svg"
 width="42" height="42" viewBox="0 0 512.000000 512.000000"
 preserveAspectRatio="xMidYMid meet">

<g transform="translate(0.000000,512.000000) scale(0.100000,-0.100000)"
fill="#1150C6" stroke="none">
<path d="M663 5102 c-73 -26 -127 -65 -168 -120 -68 -93 -65 -54 -65 -903 l0
-768 26 -20 c15 -12 33 -21 40 -21 26 0 62 23 73 47 8 17 11 243 11 763 0 498
3 748 11 767 15 40 57 82 104 104 38 18 91 19 1175 19 1084 0 1137 -1 1175
-19 47 -22 89 -64 104 -104 7 -19 11 -249 11 -696 l0 -668 -56 -7 c-122 -14
-231 -100 -274 -214 -20 -52 -21 -73 -18 -237 3 -166 5 -183 27 -225 29 -57
95 -126 144 -151 l37 -19 0 -79 0 -78 -42 -12 c-112 -33 -236 -130 -293 -227
-50 -85 -67 -151 -72 -282 l-6 -123 -159 -95 c-87 -51 -167 -94 -176 -94 -10
0 -92 45 -182 100 -91 55 -182 105 -203 111 -66 18 -113 -1 -284 -110 -88 -55
-165 -101 -171 -101 -7 0 -87 48 -179 107 l-168 108 -65 0 c-63 0 -70 -3 -228
-89 -158 -86 -163 -88 -187 -72 l-25 16 0 671 c0 490 -3 676 -12 692 -26 50
-69 60 -112 26 l-26 -20 0 -700 c0 -679 1 -701 20 -739 36 -71 126 -118 203
-106 23 4 112 45 198 91 86 47 162 85 169 85 7 0 82 -45 167 -100 86 -55 172
-105 193 -111 70 -21 114 -6 280 100 85 53 163 100 172 104 11 4 63 -22 150
-75 229 -140 231 -141 301 -136 56 4 74 12 190 81 71 42 131 77 133 77 2 0 4
-103 4 -228 l0 -228 -107 0 c-90 -1 -121 -5 -186 -27 -42 -15 -95 -38 -117
-52 -22 -14 -43 -25 -48 -25 -4 0 -37 15 -72 34 -99 53 -170 70 -285 70 -173
0 -311 -59 -430 -186 -291 -308 -178 -804 218 -962 163 -65 374 -47 519 44
l48 29 47 -29 c169 -105 401 -111 583 -16 l44 24 36 -23 c19 -12 62 -33 95
-46 l60 -24 600 -3 c419 -2 618 0 660 8 146 28 285 129 354 259 63 118 61 88
61 977 0 782 -1 814 -20 876 -48 157 -194 302 -341 339 l-49 13 0 75 0 76 45
24 c58 31 110 89 144 160 25 54 26 62 26 236 0 173 -1 182 -26 235 -37 80 -81
125 -157 162 -65 32 -70 33 -224 37 l-157 3 -25 -26 c-31 -30 -33 -64 -5 -100
20 -26 22 -26 147 -26 152 0 195 -10 243 -59 51 -51 62 -98 57 -256 -3 -123
-5 -134 -30 -172 -16 -24 -44 -49 -70 -62 -44 -21 -54 -21 -594 -21 -618 0
-601 -1 -660 76 -29 37 -29 39 -32 195 -3 140 -1 161 16 196 50 96 73 102 424
103 l287 0 21 27 c16 20 20 36 16 58 -12 58 -19 60 -226 63 l-189 3 -3 697 -3
697 -34 63 c-38 70 -92 120 -167 154 l-49 23 -1170 2 c-1104 2 -1173 2 -1222
-15z m3467 -2557 l0 -65 -475 0 -475 0 0 65 0 65 475 0 475 0 0 -65z m202
-247 c116 -54 198 -172 206 -295 l4 -62 -218 -3 c-199 -3 -223 -5 -266 -25
-98 -45 -179 -145 -204 -252 -21 -86 -19 -696 1 -776 32 -124 136 -228 260
-260 42 -11 111 -15 243 -15 l184 0 -4 -98 c-3 -81 -8 -107 -31 -154 -34 -69
-109 -141 -185 -176 l-57 -27 -589 -3 c-572 -3 -592 -2 -658 18 -37 11 -68 23
-68 26 0 4 20 36 44 73 25 37 57 103 72 146 37 107 39 265 5 365 -47 136 -133
248 -247 321 l-64 42 0 423 c0 436 4 493 42 567 24 49 83 114 129 142 87 55
74 54 734 52 l610 -2 57 -27z m208 -1023 l0 -515 -177 0 c-98 0 -195 5 -217
11 -21 6 -58 29 -82 51 -72 66 -76 89 -72 480 3 323 4 334 25 375 23 43 69 84
113 102 14 5 112 10 218 10 l192 1 0 -515z m-2597 -254 c30 -11 67 -27 82 -37
l27 -17 -309 -309 c-302 -303 -308 -308 -325 -288 -54 66 -80 226 -54 327 68
266 327 411 579 324z m627 19 c36 -6 94 -24 129 -41 l63 -31 -178 -179 c-98
-99 -182 -179 -185 -179 -3 0 -9 28 -12 63 -8 82 -40 173 -87 245 l-38 59 27
15 c31 18 115 46 156 51 54 7 59 7 125 -3z m340 -262 c95 -216 -1 -468 -219
-576 -73 -36 -78 -37 -190 -37 -106 0 -121 2 -178 29 l-62 28 26 42 c15 22
150 166 302 318 306 308 278 292 321 196z m-721 35 c118 -233 26 -506 -209
-617 -116 -54 -288 -47 -403 17 l-38 21 308 308 c169 169 311 308 315 308 4 0
16 -17 27 -37z"/>
<path d="M3103 1690 c-45 -18 -55 -72 -22 -114 l20 -26 210 0 c196 0 210 1
229 20 30 30 27 83 -6 109 -25 20 -39 21 -218 20 -105 0 -201 -4 -213 -9z"/>
<path d="M3081 1324 c-28 -35 -26 -69 4 -99 24 -25 25 -25 223 -25 186 0 201
1 226 21 33 26 36 79 6 109 -19 19 -33 20 -229 20 l-210 0 -20 -26z"/>
<path d="M3103 1000 c-45 -18 -55 -72 -22 -114 l20 -26 210 0 c196 0 210 1
229 20 30 30 27 83 -6 109 -25 20 -39 21 -218 20 -105 0 -201 -4 -213 -9z"/>
<path d="M935 4575 c-14 -13 -25 -36 -25 -50 0 -14 11 -37 25 -50 l24 -25 445
0 445 0 20 26 c28 35 26 69 -4 99 l-24 25 -441 0 -441 0 -24 -25z"/>
<path d="M954 4178 c-22 -10 -44 -47 -44 -72 0 -7 9 -25 21 -40 l20 -26 913 0
c1021 0 956 -5 956 70 0 30 -6 43 -26 59 -27 21 -31 21 -923 20 -595 0 -903
-4 -917 -11z"/>
<path d="M931 3784 c-12 -15 -21 -33 -21 -40 0 -26 23 -62 47 -73 17 -8 284
-11 917 -11 889 0 893 0 920 21 20 16 26 29 26 59 0 75 65 70 -956 70 l-913 0
-20 -26z"/>
<path d="M935 3355 c-30 -30 -32 -64 -4 -99 l20 -26 610 0 c411 0 617 3 630
11 48 25 44 105 -7 128 -18 8 -200 11 -625 11 l-600 0 -24 -25z"/>
<path d="M1268 2991 c-80 -26 -135 -61 -194 -123 -102 -108 -140 -212 -132
-360 23 -388 495 -579 782 -317 202 184 211 489 21 683 -119 120 -315 168
-477 117z m290 -166 c105 -57 163 -147 170 -265 5 -101 -22 -175 -90 -243 -70
-70 -124 -92 -228 -92 -70 0 -94 4 -135 24 -190 94 -245 341 -110 499 70 81
147 114 260 109 66 -3 90 -8 133 -32z"/>
</g>
</svg>
