<?xml version="1.0" standalone="no"?>
<!DOCTYPE svg PUBLIC "-//W3C//DTD SVG 20010904//EN"
 "http://www.w3.org/TR/2001/REC-SVG-20010904/DTD/svg10.dtd">
<svg version="1.0" xmlns="http://www.w3.org/2000/svg"
 width="24" height="24" viewBox="0 0 360.000000 360.000000"
 preserveAspectRatio="xMidYMid meet">
<metadata>
Created by potrace 1.16, written by Peter Selinger 2001-2019
</metadata>
<g transform="translate(0.000000,360.000000) scale(0.100000,-0.100000)"
fill="#1150C6" stroke="none">
<path d="M911 2934 c-53 -37 -51 -3 -51 -1134 0 -1131 -2 -1097 51 -1134 21
-14 92 -16 721 -16 519 0 704 3 723 12 54 24 55 33 55 464 l0 397 -35 -39 -34
-39 -1 -351 c0 -284 -3 -354 -14 -363 -9 -8 -200 -10 -697 -9 l-684 3 0 1075
0 1075 407 3 407 2 3 -235 3 -235 33 -32 32 -33 255 -3 255 -3 0 -40 0 -40 36
35 c26 25 35 41 32 60 -2 19 -82 101 -306 311 l-304 285 -432 0 c-383 0 -434
-2 -455 -16z"/>
<path d="M1324 2686 c-70 -31 -99 -114 -65 -190 17 -38 29 -50 67 -67 82 -37
171 0 195 80 37 123 -80 228 -197 177z"/>
<path d="M1161 2415 c-48 -41 -62 -94 -59 -215 3 -102 4 -105 27 -108 34 -5
41 12 41 111 0 96 15 145 50 170 22 15 22 16 4 41 -24 32 -26 32 -63 1z"/>
<path d="M1546 2414 c-18 -25 -18 -26 3 -40 36 -26 46 -56 51 -163 5 -109 16
-132 54 -118 13 5 16 24 16 117 0 119 -9 150 -58 203 -32 33 -42 33 -66 1z"/>
<path d="M2453 2260 c-23 -9 -60 -50 -575 -638 l-344 -392 -48 -185 c-39 -150
-46 -188 -36 -200 7 -8 18 -15 24 -15 6 0 90 32 186 71 l175 71 440 503 c242
277 446 518 453 535 21 52 2 88 -89 166 -113 97 -133 105 -186 84z m136 -135
c39 -33 71 -68 71 -78 0 -21 -39 -77 -54 -77 -15 0 -180 139 -184 155 -4 19
66 77 83 68 7 -5 45 -35 84 -68z m-891 -1060 c28 -22 51 -43 52 -46 0 -7 -211
-91 -216 -86 -3 2 37 162 52 205 3 10 11 7 33 -10 15 -13 51 -41 79 -63z"/>
<path d="M1124 1966 c-3 -8 -4 -23 -2 -33 3 -17 27 -18 462 -18 l458 0 26 33
25 32 -482 0 c-410 0 -482 -2 -487 -14z"/>
<path d="M1132 1828 c-15 -15 -15 -41 0 -56 9 -9 110 -12 394 -12 l382 0 26
34 c14 19 26 37 26 40 0 3 -184 6 -408 6 -304 0 -411 -3 -420 -12z"/>
<path d="M1124 1676 c-3 -8 -4 -23 -2 -33 3 -17 24 -18 333 -20 l330 -2 28 35
29 34 -356 0 c-301 0 -357 -2 -362 -14z"/>
<path d="M1132 1541 c-8 -4 -12 -19 -10 -32 l3 -24 264 -3 265 -2 28 27 c15
15 28 30 28 35 0 11 -561 10 -578 -1z"/>
<path d="M1127 1393 c-13 -12 -7 -51 9 -57 9 -3 99 -6 202 -6 l186 0 28 27
c15 15 28 30 28 35 0 10 -444 11 -453 1z"/>
<path d="M1124 1246 c-3 -8 -4 -23 -2 -33 3 -16 18 -18 166 -21 89 -1 162 -1
162 0 0 2 4 18 9 36 l10 32 -170 0 c-139 0 -171 -3 -175 -14z"/>
<path d="M1132 1108 c-7 -7 -12 -19 -12 -28 0 -35 21 -40 156 -40 124 0 133 1
138 20 3 11 9 29 12 40 5 19 1 20 -138 20 -99 0 -148 -4 -156 -12z"/>
</g>
</svg>
