<svg width="19" height="19" viewBox="0 0 19 19" fill="#1150C6" xmlns="http://www.w3.org/2000/svg">
<g clip-path="url(#clip0_0_175)">
<path d="M5.18911 0.533203V6.5332V0.533203ZM14.7891 0.533203V6.5332V0.533203ZM4.58911 9.5332H8.18911H4.58911ZM15.3891 9.5332H11.7891H15.3891ZM4.58911 13.1332H8.18911H4.58911ZM11.7891 13.1332H15.3891H11.7891ZM2.78911 3.5332H17.1891C17.5074 3.5332 17.8126 3.65963 18.0376 3.88467C18.2627 4.10972 18.3891 4.41494 18.3891 4.7332V16.7332C18.3891 17.0515 18.2627 17.3567 18.0376 17.5817C17.8126 17.8068 17.5074 17.9332 17.1891 17.9332H2.78911C2.47085 17.9332 2.16563 17.8068 1.94058 17.5817C1.71554 17.3567 1.58911 17.0515 1.58911 16.7332V4.7332C1.58911 4.41494 1.71554 4.10972 1.94058 3.88467C2.16563 3.65963 2.47085 3.5332 2.78911 3.5332V3.5332Z" stroke="#828282"/>
</g>
<defs>
<clipPath id="clip0_0_175">
<rect width="18" height="18" fill="white" transform="translate(0.989136 0.533203)"/>
</clipPath>
</defs>
</svg>
