<svg width="51" height="51" viewBox="0 0 51 51" fill="none" xmlns="http://www.w3.org/2000/svg">
<circle cx="25.2122" cy="25.6903" r="25" fill="#FE764B"/>
<path fill-rule="evenodd" clip-rule="evenodd" d="M33.3214 23.2805C32.9441 23.3985 32.5428 23.4621 32.1267 23.4621C29.9192 23.4621 28.1296 21.6725 28.1296 19.465C28.1296 19.0133 28.2046 18.5791 28.3427 18.1741C28.3356 18.1741 28.3285 18.1741 28.3214 18.1741H20.9067C18.1453 18.1741 15.9067 20.4126 15.9067 23.1741V30.5888C15.9067 33.3502 18.1453 35.5888 20.9067 35.5888H28.3214C31.0828 35.5888 33.3214 33.3502 33.3214 30.5888V23.2805Z" fill="white"/>
<path d="M20.036 29.4032L23.5278 25.9115L25.5839 27.9675L29.192 24.3594" stroke="#FE764B" stroke-width="1.3" stroke-linecap="round"/>
<circle cx="32.0146" cy="19.4694" r="2.82255" fill="white"/>
</svg>
