<?xml version="1.0" standalone="no"?>
<!DOCTYPE svg PUBLIC "-//W3C//DTD SVG 20010904//EN"
 "http://www.w3.org/TR/2001/REC-SVG-20010904/DTD/svg10.dtd">
<svg version="1.0" xmlns="http://www.w3.org/2000/svg"
 width="42" height="42" viewBox="0 0 1420.000000 1151.000000"
 preserveAspectRatio="xMidYMid meet">

<g transform="translate(0.000000,1151.000000) scale(0.100000,-0.100000)"
fill="#4BB8EB" stroke="none">
<path d="M6425 11485 c-288 -47 -512 -152 -867 -407 l-77 -55 -93 -6 c-210
-13 -482 -143 -645 -309 -100 -100 -103 -115 -12 -48 72 54 186 120 205 120 3
0 -22 -19 -57 -42 -99 -66 -277 -248 -349 -358 -112 -171 -178 -337 -207 -515
-24 -142 -23 -584 0 -795 20 -182 49 -367 83 -535 18 -89 21 -121 12 -124 -6
-2 -31 -22 -54 -43 -79 -72 -114 -177 -114 -339 0 -132 23 -231 84 -355 76
-154 195 -254 306 -256 l48 -1 52 -156 c132 -400 330 -837 438 -972 189 -234
636 -536 1017 -685 388 -151 633 -149 1044 12 255 99 610 306 811 470 129 106
241 230 298 332 105 186 244 506 358 822 l62 175 54 6 c110 12 215 99 286 237
63 121 83 199 89 338 6 133 -4 195 -43 280 -22 46 -80 110 -126 139 -15 9 -15
22 -3 135 48 449 48 833 -1 1145 -80 507 -286 911 -599 1173 -391 328 -942
509 -1568 515 -148 2 -173 4 -150 14 57 24 211 55 308 62 l100 7 -75 13 c-115
20 -505 23 -615 6z m2165 -1752 c5 -21 19 -87 30 -148 64 -361 52 -827 -34
-1292 -12 -67 -19 -120 -15 -117 4 2 55 44 115 94 l108 90 14 -33 c17 -42 58
-84 104 -108 49 -25 63 -68 63 -194 -1 -138 -43 -258 -122 -345 -32 -36 -40
-40 -84 -40 -86 0 -161 -45 -199 -120 -9 -19 -28 -66 -40 -105 -111 -341 -337
-849 -433 -974 -115 -150 -417 -367 -727 -521 -385 -192 -629 -241 -883 -176
-364 93 -855 381 -1101 647 -49 53 -81 102 -130 197 -111 221 -250 565 -330
822 -53 170 -113 229 -233 230 -44 0 -58 5 -86 30 -38 33 -90 124 -113 197
-24 79 -29 209 -10 275 14 49 22 59 61 83 30 17 55 43 73 75 l29 50 102 -86
c56 -47 105 -84 107 -81 3 3 -4 54 -15 113 -57 302 -85 684 -70 959 8 158 34
361 49 385 6 9 18 5 52 -18 191 -132 523 -255 826 -306 334 -56 765 -42 1162
39 202 41 376 90 690 195 466 156 716 214 947 218 l82 2 11 -37z"/>
<path d="M9454 9835 c10 -40 37 -243 44 -330 l7 -90 1875 -5 c1719 -5 1880 -7
1930 -22 212 -66 370 -230 421 -438 12 -46 14 -486 14 -2585 l0 -2530 -28 -80
c-53 -148 -161 -276 -289 -341 -27 -14 -84 -34 -126 -45 -69 -18 -114 -19
-583 -19 l-508 0 69 -132 c37 -73 85 -175 106 -226 l39 -93 445 3 c442 4 446
5 541 30 391 106 682 409 760 795 19 89 19 179 17 2685 l-3 2593 -28 89 c-116
371 -379 628 -745 728 -98 27 -97 27 -2265 30 -1694 3 -1698 3 -1693 -17z"/>
<path d="M10361 8407 c-19 -7 -44 -25 -55 -40 -21 -28 -21 -37 -24 -668 l-3
-639 -572 0 c-315 0 -577 -4 -582 -8 -6 -4 -52 -111 -103 -238 l-92 -232 0
-405 0 -405 26 -31 c14 -17 42 -35 62 -41 23 -6 263 -10 650 -10 l612 0 0
-464 0 -464 208 -118 c114 -65 277 -160 362 -211 l155 -93 278 0 c229 0 283 3
307 15 62 32 60 13 60 704 l0 630 639 3 c631 3 640 3 668 24 15 11 33 36 40
55 15 44 18 1146 3 1201 -6 20 -24 48 -41 62 l-31 26 -639 0 -639 0 0 639 0
639 -26 31 c-14 17 -42 35 -62 41 -55 15 -1157 12 -1201 -3z"/>
<path d="M1900 7265 c-104 -47 -154 -175 -118 -299 17 -56 94 -132 142 -142
58 -10 113 1 152 33 58 45 76 53 131 53 149 0 303 -127 412 -340 161 -313 220
-703 192 -1270 -21 -421 -52 -652 -109 -792 -122 -303 -323 -479 -645 -563
-161 -42 -239 -50 -487 -50 -271 1 -368 14 -546 74 -157 53 -252 109 -355 211
-145 145 -215 286 -254 514 -71 419 -90 917 -49 1265 66 561 323 966 599 949
56 -3 64 -7 102 -45 86 -86 193 -79 276 18 94 110 61 299 -65 365 -32 17 -121
18 -150 3 -13 -7 -83 -12 -172 -13 -136 -2 -158 -4 -218 -28 -103 -39 -172
-85 -270 -177 -223 -211 -358 -517 -430 -976 -20 -127 -23 -175 -22 -510 0
-383 9 -518 54 -820 108 -734 358 -1217 722 -1401 159 -80 360 -144 522 -165
l96 -13 0 -366 c0 -605 36 -918 141 -1234 173 -517 501 -798 1000 -857 120
-14 318 -7 454 15 294 49 573 195 727 380 202 242 291 511 291 881 1 255 -20
367 -139 755 -38 124 -44 282 -16 377 27 87 80 151 160 190 51 25 67 28 152
27 73 0 108 -5 151 -22 50 -20 58 -27 73 -66 10 -25 36 -62 60 -84 88 -81 206
-82 297 -3 53 45 78 100 79 172 0 120 -83 213 -207 229 -32 4 -87 21 -123 38
-142 69 -348 92 -497 57 -199 -47 -366 -187 -443 -371 -82 -196 -77 -428 15
-714 81 -249 112 -449 102 -654 -22 -489 -278 -786 -741 -861 -132 -21 -349
-19 -464 5 -401 82 -626 422 -707 1065 -30 238 -45 752 -28 963 5 73 8 83 27
86 306 57 553 134 694 218 75 44 227 195 284 283 202 308 320 735 380 1370 8
89 13 280 13 520 -1 420 -12 534 -75 780 -126 489 -382 815 -705 900 -58 15
-245 22 -265 10 -5 -3 -23 4 -39 16 -38 28 -114 35 -161 14z m575 -3422 c-49
-74 -127 -152 -187 -187 -51 -30 -236 -95 -358 -126 -221 -57 -449 -68 -630
-30 -204 42 -396 128 -489 220 -54 53 -134 157 -115 149 5 -2 41 -20 79 -40
212 -110 461 -160 803 -159 294 0 512 36 702 118 83 35 196 95 214 113 5 5 12
7 14 4 3 -3 -12 -31 -33 -62z"/>
<path d="M4835 5154 c-595 -311 -1203 -637 -1437 -772 -77 -44 -83 -50 -94
-92 -7 -25 -24 -89 -38 -144 -15 -54 -25 -100 -23 -102 2 -3 105 52 228 122
381 215 1339 729 1344 721 1 -1 -60 -168 -136 -372 -77 -203 -142 -379 -144
-390 -6 -19 -1 -20 112 -20 l118 1 124 333 c75 201 127 328 131 319 14 -24
1310 -3881 1306 -3885 -2 -2 -311 376 -686 839 -376 464 -688 848 -694 855 -8
9 -29 6 -86 -12 -41 -13 -94 -27 -118 -32 l-42 -8 920 -1135 c506 -624 920
-1138 920 -1142 0 -5 -1237 -8 -2750 -8 -1512 0 -2750 2 -2750 3 0 43 155 848
222 1152 l50 230 -21 120 c-11 66 -26 179 -32 250 -20 247 -18 246 -73 41
-108 -404 -222 -941 -340 -1610 -37 -203 -66 -378 -66 -388 0 -17 202 -18
5940 -18 3565 0 5940 4 5940 9 0 18 -140 752 -195 1021 -223 1090 -438 1771
-677 2138 -28 42 -87 113 -132 158 -294 291 -1194 838 -2631 1596 -254 135
-670 348 -678 348 -3 0 -232 -681 -508 -1512 l-502 -1513 -189 646 -189 645
155 240 155 239 -27 26 c-376 362 -513 490 -521 487 -5 -1 -112 -100 -237
-218 -126 -119 -248 -233 -271 -255 l-43 -40 155 -240 c85 -132 154 -244 152
-250 -2 -5 -87 -292 -188 -637 -101 -344 -186 -625 -189 -623 -4 2 -233 679
-511 1504 -277 826 -506 1501 -509 1500 -3 0 -113 -56 -245 -125z m4315 -542
c1233 -656 2102 -1187 2352 -1437 254 -253 494 -961 748 -2200 52 -255 140
-714 140 -732 0 -11 -464 -13 -2740 -13 -1507 0 -2740 4 -2740 8 0 6 1994
2473 2181 2698 5 7 -53 82 -166 215 -96 112 -174 207 -175 210 0 4 74 73 165
154 91 82 165 153 165 158 0 6 -99 277 -220 602 -121 325 -220 595 -220 599 0
7 95 -41 510 -262z m-526 -344 c108 -290 196 -530 196 -532 0 -2 -86 -82 -190
-177 -105 -94 -189 -175 -188 -180 2 -4 82 -102 179 -216 97 -114 178 -212
180 -216 4 -7 -1683 -2097 -1688 -2092 -3 2 1296 3926 1304 3938 3 5 6 7 8 5
2 -2 91 -240 199 -530z"/>
<path d="M9510 1543 c-81 -26 -111 -93 -74 -164 30 -59 27 -59 670 -59 653 0
637 -2 669 67 30 63 2 126 -68 152 -28 11 -1165 15 -1197 4z"/>
<path d="M4494 3876 c-34 -8 -82 -25 -108 -38 l-48 -24 82 -22 c94 -25 200
-72 288 -128 34 -21 82 -51 106 -66 25 -14 61 -48 80 -75 133 -180 70 -431
-132 -530 -50 -24 -69 -28 -147 -28 -82 0 -97 3 -157 33 -38 18 -82 50 -100
71 -18 21 -48 46 -67 56 -50 25 -138 31 -184 12 l-38 -16 16 -38 c63 -150 220
-285 382 -329 72 -18 203 -21 274 -4 162 37 311 155 386 307 157 314 -1 690
-336 803 -83 28 -215 35 -297 16z"/>
</g>
</svg>
