<svg width="20" height="20" viewBox="0 0 20 20" fill="#bb1d2d" xmlns="http://www.w3.org/2000/svg">
<g clip-path="url(#clip0_0_150)">
<path d="M14.9291 5.73974V6.23974H15.4291H17.3003C18.3138 6.23974 19.1091 7.01499 19.1091 7.9958V16.7381C19.1091 17.7319 18.3006 18.5397 17.3003 18.5397H3.67764C2.67705 18.5397 1.86914 17.732 1.86914 16.7385V7.9958C1.86914 7.01483 2.66392 6.23974 3.67764 6.23974H5.54914H6.04914V5.73974V3.75386C6.04914 2.60205 6.95335 1.67974 8.09324 1.67974H12.8854C14.0246 1.67974 14.9291 2.60205 14.9291 3.75386V5.73974ZM13.9091 6.23974H14.4091V5.73974V3.75386C14.4091 3.33703 14.2197 2.95412 13.9571 2.68091C13.6944 2.40766 13.3149 2.19974 12.8854 2.19974H8.09324C7.66329 2.19974 7.28362 2.40744 7.02074 2.681C6.75798 2.95444 6.56914 3.33737 6.56914 3.75386V5.73974V6.23974H7.06914H13.9091ZM14.6691 14.5997H15.1691V14.0997V11.0597V10.5597H14.6691H12.5091V8.39974V7.89974H12.0091H8.96914H8.46914V8.39974V10.5597H6.30914H5.80914V11.0597V14.0997V14.5997H6.30914H8.46914V16.7597V17.2597H8.96914H12.0091H12.5091V16.7597V14.5997H14.6691Z" stroke="#828282"/>
</g>
<defs>
<clipPath id="clip0_0_150">
<rect width="19" height="19" fill="white" transform="translate(0.989136 0.799744)"/>
</clipPath>
</defs>
</svg>
