<?xml version="1.0" standalone="no"?>
<!DOCTYPE svg PUBLIC "-//W3C//DTD SVG 20010904//EN"
 "http://www.w3.org/TR/2001/REC-SVG-20010904/DTD/svg10.dtd">
<svg version="1.0" xmlns="http://www.w3.org/2000/svg"
 width="24" height="24" viewBox="0 0 640.000000 640.000000"
 preserveAspectRatio="xMidYMid meet" fill="#1150C6">

<g transform="translate(0.000000,640.000000) scale(0.100000,-0.100000)"
fill="#1150C6" stroke="none">
<path d="M909 5029 c-14 -5 -34 -24 -43 -42 -16 -30 -17 -149 -14 -1626 l3
-1593 36 143 c40 155 139 544 357 1393 l138 538 39 29 c21 16 55 34 74 39 23
6 674 10 1824 10 l1787 0 0 215 c0 229 -6 261 -49 285 -13 7 -379 10 -1104 10
l-1083 0 -171 183 c-94 100 -223 236 -286 302 l-114 120 -684 2 c-422 1 -694
-2 -710 -8z"/>
<path d="M1475 3818 c-28 -25 -28 -28 -258 -928 -53 -206 -132 -514 -176 -685
-44 -170 -105 -407 -135 -526 -31 -119 -56 -228 -56 -243 0 -14 13 -40 29 -58
l29 -33 2066 -3 2066 -2 30 27 c21 20 35 46 46 88 8 33 42 166 75 295 126 493
199 778 303 1183 162 627 200 775 203 798 6 31 -20 84 -46 99 -13 7 -688 10
-2085 10 l-2065 0 -26 -22z"/>
</g>
</svg>
