<svg width="15" height="15" viewBox="0 0 15 15" fill="none" xmlns="http://www.w3.org/2000/svg">
<path d="M10.8063 5.81876C10.7484 5.76082 10.6798 5.71486 10.6041 5.68349C10.5285 5.65213 10.4475 5.63599 10.3656 5.63599C10.2838 5.63599 10.2027 5.65213 10.1271 5.68349C10.0515 5.71486 9.98282 5.76082 9.925 5.81876L7.5 8.24376L5.075 5.81876C4.95814 5.7019 4.79964 5.63625 4.63438 5.63625C4.46911 5.63625 4.31061 5.7019 4.19375 5.81876C4.07689 5.93562 4.01124 6.09412 4.01124 6.25939C4.01124 6.42466 4.07689 6.58315 4.19375 6.70001L7.0625 9.56876C7.12032 9.6267 7.189 9.67267 7.26461 9.70403C7.34022 9.7354 7.42127 9.75154 7.50313 9.75154C7.58498 9.75154 7.66603 9.7354 7.74164 9.70403C7.81725 9.67267 7.88593 9.6267 7.94375 9.56876L10.8125 6.70001C11.05 6.46251 11.05 6.06251 10.8063 5.81876Z" fill="black"/>
</svg>
