<svg width="21" height="22" viewBox="0 0 21 22" fill="none" xmlns="http://www.w3.org/2000/svg">
<g clip-path="url(#clip0_63_124)">
<path d="M20.3061 4.76463C20.3061 3.90398 19.9756 3.14373 19.3147 2.48389C18.6538 1.82406 17.8923 1.49414 17.0302 1.49414H3.75438C2.89231 1.49414 2.13081 1.82406 1.4699 2.48389C0.808975 3.14373 0.478516 3.90398 0.478516 4.76463V18.0187C0.478516 18.8794 0.808975 19.6396 1.4699 20.2995C2.13081 20.9593 2.89231 21.2892 3.75438 21.2892H10.3923V13.8015H7.97852V10.531H10.3923V9.24004C10.3923 8.12119 10.7587 7.13861 11.4914 6.2923C12.2242 5.44598 13.0935 5.02283 14.0992 5.02283H16.7716V8.29332H14.0992C13.9555 8.29332 13.819 8.37939 13.6897 8.55152C13.5604 8.72365 13.4958 8.93881 13.4958 9.19701V10.531H16.7716V13.8015H13.4958V21.2892H17.0302C17.8923 21.2892 18.6538 20.9593 19.3147 20.2995C19.9756 19.6396 20.3061 18.8794 20.3061 18.0187V4.76463Z" fill="white"/>
</g>
<defs>
<clipPath id="clip0_63_124">
<rect width="20" height="21" fill="white" transform="translate(0.39209 0.891602)"/>
</clipPath>
</defs>
</svg>
