<svg width="21" height="21" viewBox="0 0 21 21" fill="none" xmlns="http://www.w3.org/2000/svg">
<path d="M20.305 8.90185H19.4995V8.86035H10.4995V12.8604H16.151C15.3265 15.1889 13.111 16.8604 10.4995 16.8604C7.18601 16.8604 4.49951 14.1739 4.49951 10.8604C4.49951 7.54685 7.18601 4.86035 10.4995 4.86035C12.029 4.86035 13.4205 5.43735 14.48 6.37985L17.3085 3.55135C15.5225 1.88685 13.1335 0.860352 10.4995 0.860352C4.97701 0.860352 0.499512 5.33785 0.499512 10.8604C0.499512 16.3829 4.97701 20.8604 10.4995 20.8604C16.022 20.8604 20.4995 16.3829 20.4995 10.8604C20.4995 10.1899 20.4305 9.53535 20.305 8.90185Z" fill="#FFC107"/>
<path d="M1.65234 6.20585L4.93784 8.61535C5.82684 6.41435 7.97984 4.86035 10.4993 4.86035C12.0288 4.86035 13.4203 5.43735 14.4798 6.37985L17.3083 3.55135C15.5223 1.88685 13.1333 0.860352 10.4993 0.860352C6.65834 0.860352 3.32734 3.02885 1.65234 6.20585Z" fill="#FF3D00"/>
<path d="M10.4997 20.8607C13.0827 20.8607 15.4297 19.8722 17.2042 18.2647L14.1092 15.6457C13.0714 16.4349 11.8034 16.8617 10.4997 16.8607C7.89867 16.8607 5.69017 15.2022 4.85817 12.8877L1.59717 15.4002C3.25217 18.6387 6.61317 20.8607 10.4997 20.8607Z" fill="#4CAF50"/>
<path d="M20.305 8.90185H19.4995V8.86035H10.4995V12.8604H16.151C15.7566 13.9686 15.0462 14.9369 14.1075 15.6459L14.109 15.6449L17.204 18.2639C16.985 18.4629 20.4995 15.8604 20.4995 10.8604C20.4995 10.1899 20.4305 9.53535 20.305 8.90185Z" fill="#1976D2"/>
</svg>
