<svg width="19" height="19" viewBox="0 0 19 19" fill="none" xmlns="http://www.w3.org/2000/svg">
<path d="M9.98914 1.77686C8.43161 1.77686 6.90906 2.23872 5.61402 3.10403C4.31899 3.96935 3.30963 5.19926 2.71359 6.63822C2.11755 8.07719 1.9616 9.66059 2.26546 11.1882C2.56931 12.7158 3.31933 14.119 4.42067 15.2203C5.52201 16.3217 6.9252 17.0717 8.4528 17.3755C9.9804 17.6794 11.5638 17.5234 13.0028 16.9274C14.4417 16.3314 15.6716 15.322 16.537 14.027C17.4023 12.7319 17.8641 11.2094 17.8641 9.65186C17.8641 7.56328 17.0345 5.56024 15.5576 4.08339C14.0808 2.60654 12.0777 1.77686 9.98914 1.77686ZM9.98914 16.4019C8.65412 16.4019 7.34907 16.006 6.23904 15.2643C5.12901 14.5226 4.26384 13.4684 3.75295 12.235C3.24206 11.0016 3.10839 9.64437 3.36884 8.335C3.62929 7.02562 4.27216 5.82289 5.21617 4.87888C6.16017 3.93488 7.36291 3.292 8.67228 3.03155C9.98165 2.7711 11.3389 2.90478 12.5723 3.41567C13.8057 3.92656 14.8599 4.79172 15.6016 5.90176C16.3433 7.01179 16.7391 8.31683 16.7391 9.65186C16.7391 11.4421 16.028 13.159 14.7621 14.4248C13.4962 15.6907 11.7794 16.4019 9.98914 16.4019Z" fill="#828282"/>
<path d="M9.98914 14.7144C10.4551 14.7144 10.8329 14.3366 10.8329 13.8706C10.8329 13.4046 10.4551 13.0269 9.98914 13.0269C9.52315 13.0269 9.14539 13.4046 9.14539 13.8706C9.14539 14.3366 9.52315 14.7144 9.98914 14.7144Z" fill="#828282"/>
<path d="M10.5516 5.15186H9.70789C9.37528 5.15112 9.04579 5.21609 8.73835 5.34303C8.43091 5.46998 8.15157 5.6564 7.91637 5.89159C7.68118 6.12679 7.49476 6.40613 7.36781 6.71357C7.24087 7.02101 7.1759 7.3505 7.17664 7.68311V7.96436H8.30164V7.68311C8.30164 7.31015 8.4498 6.95247 8.71352 6.68874C8.97725 6.42502 9.33493 6.27686 9.70789 6.27686H10.5516C10.9246 6.27686 11.2823 6.42502 11.546 6.68874C11.8097 6.95247 11.9579 7.31015 11.9579 7.68311C11.9579 8.05607 11.8097 8.41376 11.546 8.67748C11.2823 8.9412 10.9246 9.08936 10.5516 9.08936H9.42664V11.6206H10.5516V10.2144C11.223 10.2144 11.8668 9.94768 12.3415 9.47298C12.8162 8.99827 13.0829 8.35444 13.0829 7.68311C13.0829 7.01178 12.8162 6.36795 12.3415 5.89325C11.8668 5.41855 11.223 5.15186 10.5516 5.15186Z" fill="#828282"/>
</svg>
