<svg width="18" height="18" viewBox="0 0 18 18" fill="#1150C6" xmlns="http://www.w3.org/2000/svg">
<g clip-path="url(#clip0_14_21)">
<path d="M9.57938 1.14638C9.38658 1.13214 9.19332 1.12501 9 1.125V0C9.2211 0.000107806 9.44213 0.00836341 9.66262 0.02475L9.57938 1.14638ZM11.8339 1.65262C11.4733 1.51347 11.1029 1.40104 10.7258 1.31625L10.9721 0.21825C11.403 0.315 11.8271 0.44325 12.2389 0.603L11.8339 1.65262V1.65262ZM13.3751 2.45137C13.2143 2.34411 13.0495 2.24279 12.8812 2.14763L13.4359 1.16888C13.8205 1.38683 14.1886 1.63274 14.5372 1.90462L13.8454 2.79225C13.6929 2.67326 13.536 2.55993 13.3751 2.4525V2.45137ZM15.4384 4.46513C15.2158 4.14897 14.9703 3.84966 14.7037 3.56963L15.5182 2.79338C15.822 3.114 16.1032 3.45712 16.3586 3.81712L15.4384 4.46513V4.46513ZM16.2754 5.98613C16.2015 5.80777 16.1212 5.63215 16.0346 5.45963L17.0392 4.95337C17.2379 5.34835 17.4071 5.75746 17.5455 6.17738L16.4767 6.5295C16.4163 6.34597 16.3491 6.16473 16.2754 5.98613V5.98613ZM16.8716 8.8065C16.8625 8.41988 16.8249 8.03446 16.7591 7.65337L17.8672 7.46212C17.9426 7.89637 17.9865 8.33737 17.9977 8.77837L16.8727 8.8065H16.8716ZM16.7242 10.5368C16.7614 10.3455 16.7917 10.1554 16.8154 9.963L17.9325 10.1014C17.8785 10.5403 17.792 10.9746 17.6737 11.4007L16.5892 11.1004C16.641 10.9147 16.686 10.7269 16.7242 10.5368V10.5368ZM15.6532 13.2131C15.8602 12.8869 16.0425 12.5449 16.2 12.1916L17.2282 12.6472C17.0482 13.0522 16.8401 13.4415 16.6039 13.815L15.6532 13.2131ZM14.5687 14.5687C14.706 14.4315 14.8376 14.2897 14.9625 14.1435L15.8152 14.8781C15.6708 15.0456 15.5204 15.2077 15.3641 15.3641L14.5687 14.5687V14.5687Z" fill="#828282"/>
<path d="M8.99997 1.125C7.70496 1.12509 6.42996 1.44455 5.2879 2.05508C4.14584 2.66561 3.17196 3.54836 2.45254 4.62516C1.73311 5.70195 1.29034 6.93954 1.16344 8.22832C1.03654 9.5171 1.22943 10.8173 1.72502 12.0137C2.22061 13.2101 3.00361 14.2659 4.00467 15.0874C5.00572 15.909 6.19393 16.471 7.46405 16.7237C8.73417 16.9763 10.047 16.9119 11.2863 16.536C12.5255 16.1601 13.653 15.4844 14.5687 14.5687L15.3641 15.3641C14.3176 16.4112 13.0289 17.1841 11.6123 17.6141C10.1957 18.0442 8.69484 18.1182 7.2428 17.8295C5.79075 17.5409 4.43231 16.8986 3.28784 15.9595C2.14337 15.0204 1.2482 13.8135 0.68165 12.4458C0.115099 11.078 -0.105341 9.59161 0.0398601 8.1183C0.185061 6.64499 0.691421 5.23024 1.51408 3.9994C2.33673 2.76855 3.45028 1.75962 4.75605 1.062C6.06183 0.364382 7.51952 -0.000392324 8.99997 3.16641e-07V1.125Z" fill="#828282"/>
<path d="M8.4375 3.375C8.58668 3.375 8.72976 3.43426 8.83525 3.53975C8.94074 3.64524 9 3.78832 9 3.9375V9.79875L12.654 11.8867C12.7798 11.9626 12.8709 12.0847 12.9078 12.2268C12.9448 12.369 12.9247 12.5199 12.8518 12.6475C12.779 12.775 12.6591 12.869 12.5179 12.9093C12.3766 12.9496 12.2252 12.9331 12.096 12.8633L8.1585 10.6133C8.07241 10.5641 8.00084 10.493 7.95106 10.4073C7.90127 10.3215 7.87503 10.2241 7.875 10.125V3.9375C7.875 3.78832 7.93426 3.64524 8.03975 3.53975C8.14524 3.43426 8.28832 3.375 8.4375 3.375V3.375Z" fill="#828282"/>
</g>
<defs>
<clipPath id="clip0_14_21">
<rect width="18" height="18" fill="#1150C6"/>
</clipPath>
</defs>
</svg>
