<?xml version="1.0" standalone="no"?>
<!DOCTYPE svg PUBLIC "-//W3C//DTD SVG 20010904//EN"
 "http://www.w3.org/TR/2001/REC-SVG-20010904/DTD/svg10.dtd">
<svg version="1.0" xmlns="http://www.w3.org/2000/svg"
 width="596.000000pt" height="596.000000pt" viewBox="0 0 596.000000 596.000000"
 preserveAspectRatio="xMidYMid meet">

<g transform="translate(0.000000,596.000000) scale(0.100000,-0.100000)"
fill="#1150C6" stroke="none">
<path d="M867 5759 c-49 -29 -47 111 -47 -2799 0 -2924 -3 -2772 48 -2799 29
-15 4195 -15 4224 0 50 27 48 -92 48 2380 0 2035 -2 2305 -15 2333 -8 17 -210
226 -448 464 l-433 432 -1679 0 c-1176 -1 -1686 -4 -1698 -11z m3235 -570 l3
-391 33 -29 32 -29 390 0 390 0 0 -2200 0 -2200 -1970 0 -1970 0 0 2620 0
2620 1544 0 1545 0 3 -391z m453 1 l260 -260 -263 0 -262 0 0 260 c0 143 1
260 3 260 1 0 119 -117 262 -260z"/>
<path d="M2860 4924 c-14 -2 -59 -9 -100 -15 -149 -22 -352 -100 -487 -188
l-63 -41 0 51 c0 40 -5 55 -25 74 -33 34 -96 35 -130 1 -32 -32 -38 -71 -33
-230 3 -133 4 -136 31 -163 l27 -28 164 -3 c162 -3 163 -3 193 22 58 49 51
121 -15 155 l-34 18 83 41 c446 219 962 133 1309 -218 284 -287 388 -712 274
-1109 -83 -287 -296 -541 -567 -677 -535 -270 -1170 -84 -1480 433 -147 244
-193 577 -117 851 26 92 25 104 -6 141 -21 26 -33 31 -68 31 -57 0 -83 -29
-106 -119 -51 -192 -53 -464 -6 -646 99 -381 334 -679 674 -853 198 -102 379
-145 607 -145 343 1 650 125 899 364 527 504 541 1342 30 1862 -171 174 -370
289 -604 351 -147 39 -340 56 -450 40z"/>
<path d="M2938 4354 c-15 -8 -32 -23 -38 -34 -6 -12 -10 -152 -10 -379 l0
-360 136 -183 c176 -236 187 -248 236 -248 54 0 88 35 88 89 0 36 -15 60 -140
227 l-140 188 0 324 c0 202 -4 330 -10 343 -11 20 -60 49 -82 49 -7 -1 -25 -7
-40 -16z"/>
<path d="M1699 1901 c-37 -38 -39 -88 -5 -128 l24 -28 1262 0 1262 0 24 28
c32 37 32 87 0 124 l-24 28 -1257 3 -1256 2 -30 -29z"/>
<path d="M1699 1431 c-37 -38 -39 -88 -5 -128 l24 -28 1262 0 1262 0 24 28
c34 40 32 90 -5 128 l-29 29 -1252 0 -1252 0 -29 -29z"/>
<path d="M1699 961 c-49 -50 -37 -121 26 -147 51 -21 2459 -21 2510 0 63 26
75 97 26 147 l-29 29 -1252 0 -1252 0 -29 -29z"/>
</g>
</svg>
