<?xml version="1.0" standalone="no"?>
<!DOCTYPE svg PUBLIC "-//W3C//DTD SVG 20010904//EN"
 "http://www.w3.org/TR/2001/REC-SVG-20010904/DTD/svg10.dtd">
<svg version="1.0" xmlns="http://www.w3.org/2000/svg"
 width="42" height="42" viewBox="0 0 225.000000 225.000000"
 preserveAspectRatio="xMidYMid meet">

<g transform="translate(0.000000,225.000000) scale(0.100000,-0.100000)"
fill="#4BB8EB" stroke="none">
<path d="M262 2172 c-9 -7 -12 -41 -10 -138 l3 -129 34 -3 33 -3 -4 -74 c-4
-88 -25 -117 -100 -140 -67 -19 -103 -47 -127 -98 -20 -42 -21 -58 -21 -491 0
-497 0 -494 65 -522 19 -8 53 -14 75 -14 40 0 40 0 40 -39 0 -49 16 -97 47
-138 l24 -33 -74 0 c-60 0 -80 -4 -108 -23 -93 -62 -87 -189 12 -239 28 -15
62 -18 197 -18 176 0 208 7 251 53 31 34 39 104 17 148 -9 17 -16 33 -16 34 0
1 17 14 38 27 46 31 91 111 99 178 l6 50 75 0 74 0 -53 -28 c-204 -106 -166
-402 58 -453 80 -19 149 0 212 57 64 57 85 110 79 198 -8 126 -94 213 -226
226 -37 4 -60 8 -50 9 9 0 28 15 42 32 l26 31 0 459 c0 366 -3 466 -14 492
-18 45 -69 85 -124 100 -25 7 -58 25 -74 40 -26 26 -28 35 -28 103 0 71 1 74
23 74 13 0 28 5 35 12 17 17 17 239 0 256 -14 14 -514 17 -536 4z m478 -132
l0 -70 -212 0 -213 0 3 70 4 70 209 0 209 0 0 -70z m-70 -210 c0 -39 6 -85 14
-103 18 -45 74 -91 128 -106 57 -16 94 -54 103 -103 l7 -38 -392 0 -393 0 6
42 c7 51 38 82 100 99 52 14 102 50 123 91 9 17 19 66 21 110 l6 78 138 0 139
0 0 -70z m245 -705 l0 -280 -387 -3 -388 -2 0 285 0 285 388 -2 387 -3 0 -280z
m-523 -376 c-46 -22 -73 -43 -95 -75 -30 -42 -33 -44 -82 -44 -28 0 -56 5 -63
12 -7 7 -12 38 -12 70 l0 57 143 4 c78 1 149 3 157 5 8 1 -14 -12 -48 -29z
m355 21 l175 0 -4 -61 c-3 -38 -10 -64 -19 -70 -8 -5 -53 -9 -101 -9 -77 0
-87 2 -93 20 -9 28 -92 98 -126 105 -16 4 -32 11 -36 17 -4 8 0 9 11 5 10 -4
97 -7 193 -7z m-179 -84 c60 -32 102 -99 102 -164 0 -12 -7 -39 -15 -59 l-16
-37 -74 74 -75 74 -22 -22 -22 -22 74 -75 74 -74 -37 -16 c-72 -30 -140 -13
-195 49 -38 44 -46 71 -40 137 7 66 20 80 51 51 l23 -22 22 23 22 24 -20 18
c-11 10 -20 22 -20 27 0 27 123 37 168 14z m486 -230 c46 -35 68 -78 69 -135
2 -128 -120 -212 -239 -166 -52 20 -98 75 -108 130 -14 72 33 162 99 191 49
23 136 13 179 -20z m-734 -246 l0 -70 -67 0 c-55 0 -71 4 -90 22 -29 27 -29
65 -1 95 18 20 31 23 90 23 l68 0 0 -70z m220 50 c11 -11 20 -33 20 -50 0 -50
-30 -70 -105 -70 l-65 0 0 70 0 70 65 0 c52 0 69 -4 85 -20z"/>
<path d="M426 1315 c-3 -9 -6 -32 -6 -50 0 -33 -1 -34 -47 -37 l-48 -3 0 -100
0 -100 48 -3 47 -3 0 -37 c0 -60 6 -63 111 -60 l94 3 3 48 3 47 43 0 c23 0 47
5 54 12 16 16 16 170 0 186 -7 7 -31 12 -54 12 l-43 0 -3 48 -3 47 -96 3 c-81
2 -98 0 -103 -13z m134 -88 c0 -54 13 -67 67 -67 42 0 43 0 43 -35 0 -35 -1
-35 -43 -35 -54 0 -67 -13 -67 -67 0 -42 0 -43 -35 -43 -35 0 -35 1 -35 43 0
53 -13 67 -62 67 -37 0 -38 1 -38 35 0 34 1 35 38 35 49 0 62 14 62 67 0 42 0
43 35 43 35 0 35 -1 35 -43z"/>
<path d="M810 315 l0 -35 140 0 140 0 0 35 0 35 -140 0 -140 0 0 -35z"/>
<path d="M1203 1354 c-3 -10 1 -292 10 -628 l17 -611 26 -22 25 -23 390 0 390
0 23 23 c21 21 23 34 29 187 14 364 30 1059 24 1074 -6 14 -52 16 -467 16
-419 0 -461 -2 -467 -16z m865 -254 c-3 -111 -8 -203 -11 -207 -4 -3 -37 7
-74 23 -59 25 -81 28 -168 29 -93 0 -105 -3 -175 -34 -64 -29 -86 -34 -150
-35 -62 0 -87 5 -142 30 -79 35 -78 30 -78 247 l0 147 401 0 402 0 -5 -200z
m-98 -252 c30 -14 63 -28 73 -32 16 -5 17 -21 12 -238 -3 -128 -8 -257 -11
-285 l-5 -53 -55 0 c-53 0 -54 0 -54 -30 0 -30 1 -30 55 -30 48 0 55 -2 55
-20 0 -20 -7 -20 -370 -20 -363 0 -370 0 -370 20 0 20 7 20 280 20 l280 0 0
33 0 32 -279 -3 -280 -3 -5 33 c-3 18 -8 158 -11 310 l-6 278 48 -22 c34 -15
75 -22 143 -26 91 -4 99 -3 185 32 84 34 96 36 175 33 64 -3 99 -11 140 -29z"/>
<path d="M1340 1160 l0 -70 33 0 32 0 0 70 0 70 -32 0 -33 0 0 -70z"/>
<path d="M1340 985 c0 -33 2 -35 33 -35 30 0 32 2 32 35 0 33 -2 35 -32 35
-31 0 -33 -2 -33 -35z"/>
</g>
</svg>
