<svg width="18" height="16" viewBox="0 0 18 16" fill="none" xmlns="http://www.w3.org/2000/svg">
<path d="M0.781372 8.1668L4.94804 11.5001V9.00013H12.448V7.33347H4.94804V4.83347L0.781372 8.1668Z" fill="#828282"/>
<path d="M9.94896 0.665983C8.96357 0.663251 7.98743 0.856075 7.07709 1.23329C6.16674 1.6105 5.3403 2.1646 4.64563 2.86348L5.82396 4.04182C6.92563 2.94015 8.39063 2.33265 9.94896 2.33265C11.5073 2.33265 12.9723 2.94015 14.074 4.04182C15.1756 5.14348 15.7831 6.60848 15.7831 8.16682C15.7831 9.72515 15.1756 11.1902 14.074 12.2918C12.9723 13.3935 11.5073 14.001 9.94896 14.001C8.39063 14.001 6.92563 13.3935 5.82396 12.2918L4.64563 13.4702C6.06146 14.8868 7.9448 15.6676 9.94896 15.6676C11.9531 15.6676 13.8365 14.8868 15.2523 13.4702C16.669 12.0543 17.4498 10.171 17.4498 8.16682C17.4498 6.16265 16.669 4.27932 15.2523 2.86348C14.5576 2.1646 13.7312 1.6105 12.8208 1.23329C11.9105 0.856075 10.9344 0.663251 9.94896 0.665983V0.665983Z" fill="#828282"/>
</svg>
