<?xml version="1.0" standalone="no"?>
<!DOCTYPE svg PUBLIC "-//W3C//DTD SVG 20010904//EN"
 "http://www.w3.org/TR/2001/REC-SVG-20010904/DTD/svg10.dtd">
<svg version="1.0" xmlns="http://www.w3.org/2000/svg"
 width="277.000000pt" height="200.000000pt" viewBox="0 0 277.000000 200.000000"
 preserveAspectRatio="xMidYMid meet">

<g transform="translate(0.000000,200.000000) scale(0.100000,-0.100000)"
fill="#000000" stroke="none">
<path d="M1235 1770 c-16 -17 -20 -18 -38 -5 -52 36 -111 4 -105 -57 3 -29 7
-33 36 -36 29 -3 35 0 45 27 15 40 23 39 37 -5 7 -22 15 -32 19 -25 4 6 31 14
59 18 51 6 52 7 52 38 0 58 -67 87 -105 45z"/>
<path d="M1742 1741 l-164 -6 -24 -28 c-22 -25 -24 -37 -24 -123 0 -56 4 -94
10 -94 6 0 10 29 10 68 1 86 13 103 82 113 93 13 802 11 816 -3 21 -21 13 -33
-30 -48 -92 -33 -111 -132 -36 -195 16 -14 40 -25 54 -25 13 0 24 -3 24 -7 10
-280 30 -372 30 -137 l0 139 33 15 c38 18 77 73 77 110 0 40 -39 92 -80 105
-32 11 -35 15 -40 61 -5 48 -6 49 -45 56 -45 8 -446 7 -693 -1z m403 -21 c-4
-6 -60 -10 -138 -9 -83 0 -125 4 -112 9 29 12 258 12 250 0z m-497 -11 c-2 -6
-8 -10 -13 -10 -5 0 -11 4 -13 10 -2 6 4 11 13 11 9 0 15 -5 13 -11z m822
-138 c0 -26 4 -30 33 -33 24 -2 32 -8 32 -23 0 -15 -8 -21 -32 -23 -30 -3 -33
-6 -33 -38 0 -28 -4 -35 -17 -32 -12 2 -19 14 -21 35 -3 28 -7 32 -35 35 -46
4 -50 36 -5 40 24 2 34 9 36 23 6 36 11 45 27 45 10 0 15 -10 15 -29z"/>
<path d="M1185 1675 c-5 -8 -20 -16 -32 -18 -12 -2 -25 -6 -28 -9 -7 -6 87
-78 102 -78 13 0 109 100 98 101 -38 4 -72 -5 -87 -24 l-16 -21 -14 32 c-11
27 -15 30 -23 17z"/>
<path d="M656 1628 c-26 -37 -20 -47 22 -41 20 3 42 10 49 15 7 6 14 5 18 -2
12 -19 28 5 20 29 -10 31 -87 30 -109 -1z"/>
<path d="M2016 1612 c-3 -5 -19 -7 -35 -4 -27 4 -32 0 -45 -33 -16 -38 -21
-75 -10 -75 3 0 12 7 20 15 9 8 29 15 45 15 31 0 109 -35 109 -49 0 -4 6 -8
14 -8 10 0 14 15 15 54 0 48 -2 53 -24 59 -13 3 -29 12 -36 20 -13 15 -45 19
-53 6z"/>
<path d="M625 1552 c-32 -7 -47 -24 -42 -49 3 -18 -4 -28 -32 -45 -51 -31
-176 -133 -200 -164 -34 -43 -27 -75 27 -126 26 -24 58 -50 71 -57 26 -14 23
-16 58 42 17 27 33 36 33 17 0 -5 18 -14 40 -20 37 -10 56 -30 28 -30 -6 0 -1
-10 11 -21 21 -20 30 -21 105 -15 44 3 98 11 119 17 33 9 38 14 33 32 -3 12
-9 53 -13 92 l-6 69 39 -32 c41 -34 91 -43 116 -19 7 6 39 32 71 56 31 24 57
48 57 53 0 5 -4 6 -10 3 -5 -3 -7 0 -5 7 3 8 -5 24 -19 37 l-24 23 -62 -52
-62 -51 -83 80 c-86 85 -110 95 -140 61 -34 -37 -88 -20 -99 31 -3 19 -1 38 5
46 14 17 10 21 -16 15z m-115 -302 c0 -33 -4 -60 -8 -60 -11 0 -62 54 -62 65
0 10 50 54 63 55 4 0 7 -27 7 -60z"/>
<path d="M2115 1449 c-4 -6 -5 -12 -2 -15 2 -3 7 2 10 11 7 17 1 20 -8 4z"/>
<path d="M1357 1443 c-27 -4 -28 -6 -25 -60 4 -78 28 -85 28 -9 l0 56 40 0
c22 0 40 5 40 10 0 10 -29 11 -83 3z"/>
<path d="M1590 1441 c0 -6 17 -11 38 -13 l37 -3 3 -195 c2 -174 1 -196 -15
-207 -11 -9 -60 -13 -155 -13 l-138 0 0 86 c0 64 -3 85 -12 82 -14 -5 -24
-145 -13 -186 l6 -24 165 3 c150 4 167 6 180 23 11 16 14 65 14 232 0 236 4
224 -71 224 -21 0 -39 -4 -39 -9z"/>
<path d="M1468 1369 c-23 -13 -23 -62 -2 -84 26 -25 85 -16 103 16 13 24 13
29 -2 53 -19 28 -65 35 -99 15z m62 -14 c0 -8 7 -15 15 -15 8 0 15 -7 15 -15
0 -8 -9 -15 -20 -15 -13 0 -18 -5 -14 -15 4 -9 0 -15 -10 -15 -9 0 -16 6 -16
14 0 7 -9 16 -20 19 -11 3 -20 10 -20 16 0 6 9 11 20 11 11 0 20 7 20 15 0 8
7 15 15 15 8 0 15 -7 15 -15z"/>
<path d="M1926 1225 c3 -8 -4 -26 -15 -41 -12 -15 -21 -32 -21 -38 0 -6 7 0
16 12 19 27 51 29 59 2 3 -11 11 -20 16 -20 14 0 -9 40 -27 47 -8 3 -14 16
-14 29 0 13 -4 24 -10 24 -5 0 -7 -7 -4 -15z"/>
<path d="M2137 1156 c-3 -8 0 -19 7 -25 18 -15 48 -3 44 18 -4 21 -44 27 -51
7z m43 -5 c0 -14 -18 -23 -30 -16 -6 4 -8 11 -5 16 8 12 35 12 35 0z"/>
<path d="M296 981 c-15 -16 -22 -18 -36 -8 -30 18 -70 -6 -70 -41 0 -29 20
-53 72 -85 34 -21 54 -22 62 -2 4 11 0 15 -11 13 -9 -2 -18 3 -20 10 -3 6 2
12 11 12 9 0 16 8 16 20 0 24 18 27 27 4 6 -15 8 -15 20 2 19 25 16 51 -7 74
-25 25 -42 25 -64 1z"/>
<path d="M1532 613 c3 -335 5 -349 51 -375 16 -10 107 -14 347 -16 393 -4 526
2 539 27 15 27 27 606 13 597 -9 -5 -12 -66 -12 -204 0 -242 -4 -267 -39 -280
-37 -15 -511 -23 -672 -13 -148 10 -174 18 -190 59 -6 15 -13 138 -16 275 -4
137 -10 247 -15 247 -6 0 -8 -131 -6 -317z m563 -307 c45 -33 -29 -65 -116
-51 -46 8 -61 31 -34 51 24 18 126 18 150 0z"/>
<path d="M855 271 c-51 -5 -60 -9 -63 -27 -4 -29 18 -34 154 -34 88 0 113 3
117 14 10 26 -19 38 -113 49 -19 2 -62 1 -95 -2z"/>
<path d="M458 264 c-12 -11 -10 -21 8 -38 23 -23 252 -23 261 0 3 8 0 21 -6
27 -13 13 -252 23 -263 11z"/>
</g>
</svg>
