<?xml version="1.0" standalone="no"?>
<!DOCTYPE svg PUBLIC "-//W3C//DTD SVG 20010904//EN"
 "http://www.w3.org/TR/2001/REC-SVG-20010904/DTD/svg10.dtd">
<svg version="1.0" xmlns="http://www.w3.org/2000/svg"
 width="42" height="42" viewBox="0 0 512.000000 512.000000"
 preserveAspectRatio="xMidYMid meet">

<g transform="translate(0.000000,512.000000) scale(0.100000,-0.100000)"
fill="#1150C6" stroke="none">
<path d="M1542 4414 c-21 -14 -22 -22 -22 -145 l0 -129 -128 0 c-179 0 -172 8
-172 -218 l0 -172 -173 0 c-164 0 -175 -1 -193 -21 -18 -20 -19 -40 -19 -341
l0 -320 24 -19 c21 -17 41 -19 192 -19 l169 0 0 -169 c0 -221 -9 -210 165
-213 l130 -3 2 -960 3 -960 21 -17 c20 -17 85 -18 1047 -18 l1026 0 328 327
c251 250 331 336 339 363 6 23 9 540 7 1523 l-3 1489 -24 19 c-23 18 -59 19
-1360 19 -1193 0 -1339 -2 -1359 -16z m2608 -1534 l0 -1420 -289 0 c-276 0
-289 -1 -315 -21 l-26 -20 -2 -297 -3 -297 -932 -3 -933 -2 0 915 0 915 127 0
c173 0 163 -12 163 207 l0 173 170 0 c168 0 171 0 195 25 l25 24 0 314 c0 254
-3 317 -14 333 -13 17 -31 19 -193 24 l-178 5 -5 178 c-5 162 -7 180 -24 193
-15 10 -53 14 -143 14 l-123 0 0 80 0 80 1250 0 1250 0 0 -1420z m-2340 955
c0 -230 -15 -215 217 -215 l173 0 -2 -227 -3 -228 -175 -3 c-226 -3 -210 13
-210 -213 l0 -169 -230 0 -230 0 0 172 c0 145 -3 174 -17 190 -14 16 -34 18
-190 18 l-173 0 0 230 0 230 168 0 c228 0 212 -15 212 204 0 95 3 176 7 179 3
4 107 7 230 7 l223 0 0 -175z m2240 -2518 c0 -1 -90 -92 -200 -202 l-200 -200
0 203 0 202 200 0 c110 0 200 -1 200 -3z"/>
<path d="M2552 3584 c-28 -19 -30 -74 -4 -97 17 -15 70 -17 554 -17 505 0 536
1 551 18 25 27 22 78 -5 96 -20 14 -89 16 -548 16 -459 0 -528 -2 -548 -16z"/>
<path d="M2562 3178 c-43 -21 -42 -96 3 -116 19 -9 167 -12 535 -12 539 0 555
1 566 47 9 36 -3 68 -31 81 -35 16 -1040 16 -1073 0z"/>
<path d="M2147 2752 c-23 -25 -21 -68 3 -92 20 -20 33 -20 748 -20 808 0 772
-3 772 64 0 70 45 66 -772 66 -699 0 -736 -1 -751 -18z"/>
<path d="M2152 2344 c-28 -19 -30 -74 -4 -97 17 -16 84 -17 754 -17 699 0 736
1 751 18 25 27 22 78 -5 96 -20 14 -108 16 -748 16 -640 0 -728 -2 -748 -16z"/>
<path d="M2150 1930 c-26 -26 -26 -72 1 -96 20 -18 47 -19 749 -19 702 0 729
1 749 19 27 24 27 70 1 96 -20 20 -33 20 -750 20 -717 0 -730 0 -750 -20z"/>
</g>
</svg>
