<svg width="18" height="18" viewBox="0 0 18 18" fill="#bb1d2d" xmlns="http://www.w3.org/2000/svg">
<path d="M13.5625 5.0625C13.5625 7.58128 11.5188 9.625 9 9.625C6.48122 9.625 4.4375 7.58128 4.4375 5.0625C4.4375 2.54372 6.48122 0.5 9 0.5C11.5188 0.5 13.5625 2.54372 13.5625 5.0625ZM9 12.3125C9.94956 12.3125 10.8533 12.109 11.6701 11.75H13.5C15.7094 11.75 17.5 13.5406 17.5 15.75V16.3125C17.5 16.968 16.968 17.5 16.3125 17.5H1.6875C1.032 17.5 0.5 16.968 0.5 16.3125V15.75C0.5 13.5406 2.2906 11.75 4.5 11.75H6.33033C7.14934 12.1088 8.04978 12.3125 9 12.3125Z" stroke="#828282"/>
</svg>
