<svg width="51" height="51" viewBox="0 0 51 51" fill="none" xmlns="http://www.w3.org/2000/svg">
<circle cx="25.7068" cy="25.6903" r="25" fill="#2984FF"/>
<path d="M33.5443 31.3181L33.3648 31.1514C32.8558 30.674 32.4102 30.1265 32.0401 29.5236C31.6359 28.6917 31.3937 27.7832 31.3276 26.8514V24.107C31.3311 22.6434 30.8268 21.2289 29.9093 20.1292C28.9919 19.0295 27.7246 18.3202 26.3454 18.1348V17.4181C26.3454 17.2214 26.2712 17.0327 26.139 16.8937C26.0069 16.7546 25.8277 16.6764 25.6408 16.6764C25.4539 16.6764 25.2747 16.7546 25.1426 16.8937C25.0105 17.0327 24.9362 17.2214 24.9362 17.4181V18.1459C23.5694 18.3447 22.3174 19.0582 21.412 20.1543C20.5066 21.2503 20.0093 22.6546 20.0121 24.107V26.8514C19.946 27.7832 19.7037 28.6917 19.2996 29.5236C18.9359 30.125 18.4974 30.6724 17.9959 31.1514L17.8165 31.3181V32.8848H33.5443V31.3181Z" fill="white"/>
<path d="M24.2924 33.4681C24.3386 33.8202 24.5044 34.1429 24.7591 34.3764C25.0137 34.6099 25.34 34.7386 25.6778 34.7386C26.0155 34.7386 26.3418 34.6099 26.5965 34.3764C26.8511 34.1429 27.0169 33.8202 27.0632 33.4681H24.2924Z" fill="white"/>
</svg>
