<svg width="31" height="30" viewBox="0 0 31 30" fill="none" xmlns="http://www.w3.org/2000/svg">
<path d="M26.9725 18.0872L24.4347 15.5494V12.1875C24.4318 9.86422 23.5675 7.62454 22.009 5.90155C20.4505 4.17855 18.3085 3.09462 15.9972 2.85937V0.9375H14.1222V2.85937C11.8109 3.09462 9.66884 4.17855 8.11035 5.90155C6.55186 7.62454 5.6876 9.86422 5.68469 12.1875V15.5494L3.14688 18.0872C2.97105 18.263 2.87225 18.5014 2.87219 18.75V21.5625C2.87219 21.8111 2.97096 22.0496 3.14678 22.2254C3.3226 22.4012 3.56105 22.5 3.80969 22.5H10.3722V23.2284C10.3518 24.4178 10.771 25.5728 11.5495 26.4722C12.328 27.3716 13.411 27.9521 14.5909 28.1025C15.2427 28.1671 15.9007 28.0946 16.5227 27.8897C17.1448 27.6847 17.717 27.3519 18.2027 26.9125C18.6883 26.4731 19.0767 25.9369 19.3427 25.3384C19.6087 24.7399 19.7465 24.0924 19.7472 23.4375V22.5H26.3097C26.5583 22.5 26.7968 22.4012 26.9726 22.2254C27.1484 22.0496 27.2472 21.8111 27.2472 21.5625V18.75C27.2471 18.5014 27.1483 18.263 26.9725 18.0872ZM17.8722 23.4375C17.8722 24.1834 17.5759 24.8988 17.0484 25.4262C16.521 25.9537 15.8056 26.25 15.0597 26.25C14.3138 26.25 13.5984 25.9537 13.071 25.4262C12.5435 24.8988 12.2472 24.1834 12.2472 23.4375V22.5H17.8722V23.4375ZM25.3722 20.625H4.74719V19.1381L7.285 16.6003C7.46083 16.4245 7.55964 16.1861 7.55969 15.9375V12.1875C7.55969 10.1984 8.34987 8.29072 9.75639 6.8842C11.1629 5.47768 13.0706 4.6875 15.0597 4.6875C17.0488 4.6875 18.9565 5.47768 20.363 6.8842C21.7695 8.29072 22.5597 10.1984 22.5597 12.1875V15.9375C22.5597 16.1861 22.6586 16.4245 22.8344 16.6003L25.3722 19.1381V20.625Z" fill="#B3B3B3"/>
</svg>
