<svg width="19" height="19" viewBox="0 0 19 19" fill="#1150C6" xmlns="http://www.w3.org/2000/svg">
<g clip-path="url(#clip0_0_179)">
<path d="M14.4891 8.64153V8.64166L14.4972 8.6414C15.609 8.60553 16.6864 8.92922 17.4813 9.41151C17.8785 9.65247 18.1976 9.92846 18.4149 10.2105C18.6331 10.4936 18.7391 10.7694 18.7391 11.0165C18.7391 11.0373 18.7308 11.0787 18.6618 11.1429C18.5911 11.2087 18.4755 11.2793 18.3109 11.3486C18.0195 11.4713 17.6208 11.5709 17.1733 11.6432C16.483 10.4544 15.2439 9.54195 13.8258 8.88971C13.8368 8.87584 13.848 8.86187 13.8594 8.8477L13.8615 8.845C13.9116 8.78236 13.9649 8.7158 14.0192 8.64153H14.4891ZM5.48914 8.56653H5.95534L6.1665 8.88327C4.74257 9.53594 3.49759 10.4505 2.80493 11.6432C2.35747 11.5709 1.95881 11.4713 1.6674 11.3486C1.5028 11.2793 1.38718 11.2087 1.31644 11.1429C1.24749 11.0787 1.23914 11.0373 1.23914 11.0165C1.23914 10.7695 1.34513 10.4936 1.5636 10.209C1.78129 9.92548 2.10084 9.64693 2.49868 9.40107C3.29498 8.90898 4.37469 8.56653 5.48914 8.56653ZM12.7391 6.06653C12.7391 7.57846 11.5011 8.81653 9.98914 8.81653C8.47721 8.81653 7.23914 7.57846 7.23914 6.06653C7.23914 4.5546 8.47721 3.31653 9.98914 3.31653C11.5011 3.31653 12.7391 4.5546 12.7391 6.06653ZM9.98914 14.8165L9.98914 15.0665L9.98913 14.8165H9.98898L9.98829 14.8165L9.98528 14.8165L9.97293 14.8165L9.92384 14.8162C9.88063 14.8158 9.81697 14.8151 9.73579 14.8136C9.57339 14.8107 9.34102 14.8049 9.06204 14.7933C8.50345 14.77 7.76087 14.7235 7.02014 14.631C6.27566 14.5379 5.54899 14.4001 5.01442 14.1996C4.74633 14.0991 4.54345 13.9889 4.41157 13.8735C4.28291 13.7609 4.23914 13.6602 4.23914 13.5665C4.23914 12.7968 4.87829 11.9248 5.97057 11.2272C7.04776 10.5393 8.50135 10.0665 9.98914 10.0665C11.4769 10.0665 12.9305 10.5393 14.0077 11.2272C15.1 11.9248 15.7391 12.7968 15.7391 13.5665C15.7391 13.6602 15.6954 13.7609 15.5667 13.8735C15.4348 13.9889 15.2319 14.0991 14.9639 14.1996C14.4293 14.4001 13.7026 14.5379 12.9581 14.631C12.2174 14.7235 11.4748 14.77 10.9162 14.7933C10.6372 14.8049 10.4049 14.8107 10.2425 14.8136C10.1613 14.8151 10.0976 14.8158 10.0544 14.8162L10.0053 14.8165L9.99299 14.8165L9.98998 14.8165L9.98929 14.8165H9.98914ZM14.5963 7.31395C14.6921 6.91926 14.7391 6.49129 14.7391 6.06653C14.7391 5.07688 14.424 4.15095 13.9063 3.40039C14.0833 3.34445 14.2704 3.31653 14.4891 3.31653C15.6261 3.31653 16.4891 4.1796 16.4891 5.31653C16.4891 6.41746 15.6798 7.26161 14.5963 7.31395ZM5.382 7.31395C4.29842 7.26161 3.48914 6.41746 3.48914 5.31653C3.48914 4.1796 4.35221 3.31653 5.48914 3.31653C5.70783 3.31653 5.89494 3.34445 6.07192 3.40039C5.55425 4.15095 5.23914 5.07687 5.23914 6.06653C5.23914 6.4913 5.28612 6.91926 5.382 7.31395Z" stroke="black" stroke-width="0.5"/>
</g>
<defs>
<clipPath id="clip0_0_179">
<rect width="18" height="18" fill="white" transform="translate(0.989136 0.0665283)"/>
</clipPath>
</defs>
</svg>
