<?xml version="1.0" standalone="no"?>
<!DOCTYPE svg PUBLIC "-//W3C//DTD SVG 20010904//EN"
 "http://www.w3.org/TR/2001/REC-SVG-20010904/DTD/svg10.dtd">
<svg version="1.0" xmlns="http://www.w3.org/2000/svg"
 width="30" height="30" viewBox="0 0 640.000000 640.000000"
 preserveAspectRatio="xMidYMid meet">

<g transform="translate(0.000000,512.000000) scale(0.100000,-0.100000)"
fill="#1150C6" stroke="none">
<path d="M2798 5077 c-15 -12 -32 -35 -38 -50 -6 -18 -10 -253 -10 -668 l0
-639 -222 0 c-123 0 -251 -4 -285 -9 -146 -22 -263 -129 -292 -269 -15 -70
-16 -3065 -1 -3142 6 -29 20 -73 32 -98 31 -61 116 -136 183 -161 56 -21 57
-21 2131 -21 2064 0 2076 0 2104 20 16 11 36 39 44 63 9 23 149 463 312 977
282 891 296 939 297 1015 1 106 -33 184 -110 255 -84 77 -131 90 -328 90
l-163 0 -4 218 c-3 211 -4 219 -30 274 -64 136 -191 208 -369 208 l-59 0 -2
943 c-3 881 -4 944 -21 968 -9 14 -29 31 -43 37 -18 9 -422 12 -1562 12
l-1537 0 -27 -23z m2962 -1072 l0 -865 -1100 0 -1100 0 0 119 c0 190 -24 270
-104 352 -81 82 -173 109 -368 109 l-108 0 0 575 0 575 1390 0 1390 0 0 -865z
m-2486 -540 c50 -33 56 -65 56 -275 0 -151 3 -197 15 -220 33 -64 -59 -60
1422 -60 1263 0 1350 -1 1383 -18 20 -10 42 -32 52 -52 17 -33 18 -116 18
-1312 l0 -1278 -1989 0 -1989 0 -31 30 c-17 17 -33 45 -36 63 -3 18 -4 715 -3
1549 l3 1517 21 28 c38 51 50 52 569 50 458 -2 481 -3 509 -22z m3496 -1270
c31 -16 60 -61 60 -94 0 -10 -85 -288 -190 -618 l-189 -598 -1 663 0 662 145
0 c111 0 153 -4 175 -15z"/>
<path d="M3281 4397 c-39 -20 -64 -61 -64 -107 0 -34 7 -48 32 -73 l31 -32
1063 -3 c734 -2 1073 0 1099 8 50 14 78 52 78 104 0 50 -21 83 -66 102 -46 19
-2135 21 -2173 1z"/>
<path d="M3744 3820 c-58 -23 -83 -112 -47 -167 32 -48 62 -53 323 -53 185 0
248 3 275 14 88 37 94 161 10 201 -27 12 -78 15 -287 14 -139 0 -263 -4 -274
-9z"/>
<path d="M4659 3815 c-36 -20 -63 -78 -55 -120 8 -41 47 -81 87 -89 18 -3 189
-6 381 -6 272 0 356 3 381 14 71 29 90 120 38 178 l-29 33 -389 2 c-322 2
-392 0 -414 -12z"/>
</g>
</svg>
