<?xml version="1.0" standalone="no"?>
<!DOCTYPE svg PUBLIC "-//W3C//DTD SVG 20010904//EN"
 "http://www.w3.org/TR/2001/REC-SVG-20010904/DTD/svg10.dtd">
<svg version="1.0" xmlns="http://www.w3.org/2000/svg"
 width="348.000000pt" height="348.000000pt" viewBox="0 0 348.000000 348.000000"
 preserveAspectRatio="xMidYMid meet">

<g transform="translate(0.000000,348.000000) scale(0.100000,-0.100000)"
fill="#000000" stroke="none">
<path d="M1545 3469 c-286 -28 -582 -135 -831 -300 -147 -98 -353 -303 -447
-444 -118 -178 -195 -361 -238 -565 -30 -141 -32 -417 -5 -560 68 -354 270
-696 539 -915 l86 -70 0 -307 1 -306 292 160 293 161 105 -21 c345 -70 659
-54 980 49 123 39 353 152 454 223 366 256 602 611 682 1026 27 143 25 419 -5
560 -43 204 -120 387 -238 565 -94 141 -300 346 -447 444 -360 239 -783 343
-1221 300z m323 -1472 l143 -149 412 228 c227 125 417 229 422 232 13 6 14 8
-480 -518 -230 -245 -426 -453 -435 -463 -16 -17 -26 -8 -211 189 -107 114
-206 221 -220 238 l-26 30 -364 -199 c-200 -109 -393 -214 -429 -234 l-65 -35
45 51 c25 28 236 254 470 502 l425 451 85 -87 c47 -49 150 -155 228 -236z"/>
</g>
</svg>
