<svg width="42" height="42" viewBox="0 0 18 19" fill="#4BB8EB" xmlns="http://www.w3.org/2000/svg">
<path d="M5.68907 18.0622C7.02408 18.0622 8.28007 17.5422 9.22407 16.5982L16.3581 9.46524C17.294 8.52635 17.8194 7.25469 17.8192 5.92903C17.819 4.60337 17.2932 3.33186 16.3571 2.39324C15.8936 1.92777 15.3425 1.55881 14.7356 1.3077C14.1286 1.05658 13.4779 0.928284 12.8211 0.930236C11.4861 0.930236 10.2311 1.45024 9.28707 2.39424L2.15307 9.52724C1.21742 10.4661 0.69196 11.7375 0.691773 13.063C0.691585 14.3885 1.21668 15.6601 2.15207 16.5992C2.61571 17.0647 3.16701 17.4337 3.77412 17.6848C4.38122 17.9359 5.03209 18.0642 5.68907 18.0622V18.0622ZM10.7001 3.80824C10.9779 3.52901 11.3083 3.30763 11.6721 3.15693C12.036 3.00622 12.4262 2.92917 12.8201 2.93024C13.6221 2.93024 14.3761 3.24224 14.9421 3.80824C15.5039 4.37125 15.8196 5.13412 15.8198 5.92953C15.82 6.72494 15.5047 7.48796 14.9431 8.05124L12.0501 10.9432L7.80808 6.69924L10.7001 3.80824Z" fill="#828282"/>
</svg>
