<svg width="16" height="16" viewBox="0 0 16 16" fill="none" xmlns="http://www.w3.org/2000/svg">
<g clip-path="url(#clip0_0_134)">
<path d="M14.0956 13.625L11.2918 10.8163L14.0956 13.625ZM12.8456 7.0625C12.8456 8.47146 12.2859 9.82272 11.2896 10.819C10.2933 11.8153 8.94204 12.375 7.53308 12.375C6.12412 12.375 4.77286 11.8153 3.77658 10.819C2.78029 9.82272 2.22058 8.47146 2.22058 7.0625C2.22058 5.65354 2.78029 4.30228 3.77658 3.306C4.77286 2.30971 6.12412 1.75 7.53308 1.75C8.94204 1.75 10.2933 2.30971 11.2896 3.306C12.2859 4.30228 12.8456 5.65354 12.8456 7.0625V7.0625Z" stroke="#BDBDBD" stroke-width="2" stroke-linecap="round"/>
</g>
<defs>
<clipPath id="clip0_0_134">
<rect width="15" height="15" fill="white" transform="translate(0.970581 0.5)"/>
</clipPath>
</defs>
</svg>
