<svg width="20" height="21" viewBox="0 0 20 21" fill="none" xmlns="http://www.w3.org/2000/svg">
<path d="M17.7363 7.3296L12.7773 6.60889L10.5605 2.11475C10.5 1.99171 10.4004 1.8921 10.2773 1.83155C9.96875 1.67921 9.59375 1.80616 9.43945 2.11475L7.22265 6.60889L2.26367 7.3296C2.12695 7.34913 2.00195 7.41358 1.90625 7.51124C1.79055 7.63016 1.72679 7.79014 1.72899 7.95605C1.73119 8.12195 1.79916 8.28019 1.91797 8.396L5.50586 11.8941L4.6582 16.8335C4.63832 16.9484 4.65104 17.0666 4.6949 17.1746C4.73877 17.2827 4.81203 17.3763 4.90638 17.4448C5.00073 17.5133 5.11239 17.554 5.22871 17.5623C5.34502 17.5706 5.46133 17.5462 5.56445 17.4917L10 15.1597L14.4355 17.4917C14.5566 17.5562 14.6973 17.5776 14.832 17.5542C15.1719 17.4956 15.4004 17.1733 15.3418 16.8335L14.4941 11.8941L18.082 8.396C18.1797 8.3003 18.2441 8.1753 18.2637 8.03858C18.3164 7.69678 18.0781 7.38038 17.7363 7.3296V7.3296Z" fill="#BB1D2D"/>
</svg>
