<svg width="51" height="51" viewBox="0 0 51 51" fill="none" xmlns="http://www.w3.org/2000/svg">
<circle cx="25.3806" cy="25.6903" r="25" fill="#FF6270"/>
<g clip-path="url(#clip0_0_376)">
<path d="M37.3806 28.2903C37.3806 28.8903 36.1806 29.2903 34.7806 29.4903C33.8806 27.7903 32.0806 26.4903 29.9806 25.5903C30.1806 25.2903 30.3806 25.0903 30.5806 24.7903H31.3806C34.4806 24.6903 37.3806 26.5903 37.3806 28.2903ZM20.1806 24.6903H19.3806C16.2806 24.6903 13.3806 26.5903 13.3806 28.2903C13.3806 28.8903 14.5806 29.2903 15.9806 29.4903C16.8806 27.7903 18.6806 26.4903 20.7806 25.5903L20.1806 24.6903ZM25.3806 25.6903C27.5806 25.6903 29.3806 23.8903 29.3806 21.6903C29.3806 19.4903 27.5806 17.6903 25.3806 17.6903C23.1806 17.6903 21.3806 19.4903 21.3806 21.6903C21.3806 23.8903 23.1806 25.6903 25.3806 25.6903ZM25.3806 26.6903C21.2806 26.6903 17.3806 29.2903 17.3806 31.6903C17.3806 33.6903 25.3806 33.6903 25.3806 33.6903C25.3806 33.6903 33.3806 33.6903 33.3806 31.6903C33.3806 29.2903 29.4806 26.6903 25.3806 26.6903ZM31.0806 23.6903H31.3806C33.0806 23.6903 34.3806 22.3903 34.3806 20.6903C34.3806 18.9903 33.0806 17.6903 31.3806 17.6903C30.8806 17.6903 30.4806 17.7903 30.0806 17.9903C30.8806 18.9903 31.3806 20.2903 31.3806 21.6903C31.3806 22.3903 31.2806 23.0903 31.0806 23.6903ZM19.3806 23.6903H19.6806C19.4806 23.0903 19.3806 22.3903 19.3806 21.6903C19.3806 20.2903 19.8806 18.9903 20.6806 17.9903C20.2806 17.7903 19.8806 17.6903 19.3806 17.6903C17.6806 17.6903 16.3806 18.9903 16.3806 20.6903C16.3806 22.3903 17.6806 23.6903 19.3806 23.6903Z" fill="white"/>
</g>
<defs>
<clipPath id="clip0_0_376">
<rect width="24" height="24" fill="white" transform="translate(13.3806 13.6903)"/>
</clipPath>
</defs>
</svg>
